<?xml version="1.0" standalone="no"?>
<!DOCTYPE svg PUBLIC "-//W3C//DTD SVG 20010904//EN"
 "http://www.w3.org/TR/2001/REC-SVG-20010904/DTD/svg10.dtd">
<svg version="1.0" xmlns="http://www.w3.org/2000/svg"
 width="800.000000pt" height="800.000000pt" viewBox="0 0 800.000000 800.000000"
 preserveAspectRatio="xMidYMid meet">
<metadata>
Created by potrace 1.11, written by Peter Selinger 2001-2013
</metadata>
<g transform="translate(0.000000,800.000000) scale(0.100000,-0.100000)"
fill="#000000" stroke="none">
<path d="M1715 6353 c-150 -16 -283 -86 -372 -195 -53 -65 -112 -234 -128
-368 -14 -112 -16 -162 -16 -455 0 -332 3 -395 27 -550 7 -42 8 -46 23 -107 5
-21 7 -38 5 -38 -3 0 2 -13 11 -30 8 -16 15 -31 14 -32 0 -2 4 -16 10 -31 6
-16 9 -32 6 -37 -3 -5 -2 -10 2 -12 11 -5 56 -96 56 -113 0 -8 4 -15 9 -15 5
0 14 -12 21 -27 12 -28 21 -41 45 -68 7 -8 11 -15 7 -15 -4 0 1 -7 9 -16 9 -8
14 -20 10 -25 -3 -5 0 -8 8 -7 7 2 12 -3 10 -10 -1 -8 2 -11 7 -8 13 8 34 -21
25 -35 -4 -8 -3 -9 5 -5 6 4 14 1 17 -8 3 -8 14 -18 25 -21 10 -4 19 -11 19
-16 0 -15 26 -39 34 -32 3 4 6 -1 6 -10 0 -10 6 -17 13 -17 18 0 59 -45 50
-54 -5 -4 -3 -7 2 -6 27 6 17 -8 -83 -107 -119 -119 -130 -132 -185 -216 -92
-138 -154 -316 -192 -545 -14 -86 -25 -796 -13 -819 3 -4 6 -30 7 -58 2 -61
17 -154 36 -217 7 -25 11 -49 8 -52 -4 -3 -1 -6 5 -6 7 0 12 -6 12 -13 0 -18
51 -120 64 -129 6 -4 7 -8 2 -8 -5 0 3 -9 17 -20 17 -14 24 -26 20 -37 -4 -10
-2 -14 4 -10 6 4 17 1 25 -6 46 -45 152 -98 226 -112 9 -2 18 -4 20 -5 1 -2 7
-3 13 -4 5 0 19 -12 30 -26 16 -20 18 -21 10 -4 -16 33 0 38 21 7 10 -16 18
-23 18 -18 0 6 -5 16 -11 22 -9 9 -1 11 27 8 22 -1 45 -3 52 -4 7 -1 10 -7 7
-13 -4 -7 0 -5 8 4 17 22 32 11 14 -11 -11 -14 -10 -14 5 -2 10 7 16 17 13 21
-9 14 76 4 86 -10 9 -12 10 -12 5 3 -3 11 0 17 10 17 11 0 14 -5 10 -16 -5
-14 -4 -15 9 -4 8 7 13 15 11 19 -3 4 11 7 30 6 20 0 39 -7 44 -15 7 -11 10
-11 10 -2 0 7 5 10 10 7 6 -3 10 -1 10 5 0 7 -7 10 -15 6 -8 -3 -15 -1 -15 4
0 14 61 8 67 -7 3 -7 10 -13 15 -13 6 0 5 7 -2 15 -7 9 -9 19 -5 23 4 4 10 1
12 -5 6 -17 30 -16 40 1 4 7 23 15 41 18 28 4 31 2 26 -14 -3 -10 0 -18 6 -18
6 0 8 4 5 10 -3 5 2 10 12 11 10 0 13 3 6 6 -7 2 -13 9 -13 14 0 6 5 7 10 4 6
-4 19 -1 28 7 15 12 16 11 3 -5 -12 -15 -12 -17 3 -11 9 3 16 10 16 14 0 4 7
11 16 14 15 6 15 4 3 -11 -12 -15 -12 -16 2 -11 9 4 22 2 28 -3 8 -6 8 -5 1 3
-11 13 -14 35 -4 25 4 -3 15 -2 26 4 25 14 43 2 26 -18 -12 -15 -11 -15 10 -2
12 8 18 15 12 17 -5 2 -10 8 -10 13 0 6 4 8 9 5 5 -4 12 0 14 6 3 8 6 6 6 -5
1 -10 6 -15 11 -12 6 4 7 11 4 17 -4 6 1 6 14 -1 15 -8 23 -8 28 1 4 6 3 8 -4
4 -6 -3 -13 -2 -16 3 -9 13 19 7 38 -8 18 -15 31 -8 31 16 0 9 6 18 13 20 8 3
10 -1 5 -13 -4 -12 -3 -15 5 -10 7 4 12 14 12 23 0 11 5 9 18 -7 16 -20 20
-21 25 -7 4 11 2 14 -9 10 -7 -3 -14 -1 -14 5 0 8 18 16 65 28 6 1 24 8 40 15
43 17 54 19 62 7 3 -7 1 -8 -5 -4 -8 5 -10 2 -6 -9 6 -14 8 -14 19 1 11 16 13
16 23 -2 6 -10 11 -14 12 -9 0 19 -18 38 -29 31 -6 -4 -11 -3 -11 2 0 5 11 12
25 14 13 3 22 2 20 -2 -2 -4 2 -16 11 -26 15 -18 15 -18 5 2 -8 17 -1 49 10
44 2 -1 12 2 22 6 11 4 23 1 30 -6 9 -10 9 -11 -3 -6 -9 5 -9 2 2 -7 10 -8 14
-18 10 -22 -4 -5 -1 -5 6 -1 7 4 10 12 6 17 -3 5 0 18 8 27 12 15 11 16 -4 3
-11 -8 -18 -9 -18 -3 0 13 36 26 50 17 5 -3 10 -1 10 5 0 6 5 8 11 4 8 -4 7
-9 -2 -15 -7 -4 -10 -11 -6 -16 11 -11 26 17 19 36 -3 9 -2 13 3 9 4 -4 14 -3
22 3 7 6 13 8 13 4 0 -4 6 -2 14 4 11 9 16 9 22 0 5 -8 3 -9 -6 -4 -9 6 -11 4
-5 -5 5 -9 4 -11 -3 -6 -8 5 -10 2 -6 -8 3 -9 10 -16 16 -16 5 0 7 4 3 9 -3 5
-1 12 5 16 6 4 8 10 5 15 -3 5 -1 11 5 15 10 6 14 -7 11 -33 -1 -6 3 -12 9
-12 6 0 9 4 5 9 -3 6 3 15 12 21 17 11 17 11 1 6 -10 -3 -18 -1 -18 4 0 6 8
10 18 10 10 0 23 5 30 12 14 14 16 -3 2 -20 -7 -8 -7 -9 1 -3 7 6 21 6 36 0
16 -6 22 -5 18 1 -3 6 -13 10 -21 10 -18 0 -14 22 6 28 7 3 10 1 7 -4 -3 -5 7
-18 22 -28 26 -20 26 -20 9 0 -23 26 -22 31 2 44 15 8 26 7 43 -1 20 -11 21
-11 8 4 -20 24 4 22 29 -3 11 -11 20 -15 20 -9 0 7 -6 17 -13 23 -7 6 -10 10
-8 9 2 -2 10 2 17 7 6 6 16 10 20 8 5 -1 19 3 31 10 12 6 29 9 39 5 13 -5 15
-3 9 7 -5 8 -4 11 3 6 6 -3 13 -2 17 4 4 6 11 8 16 5 5 -4 9 -1 9 5 0 7 8 9
21 5 16 -5 19 -4 14 5 -5 8 -4 11 3 6 6 -3 13 -2 16 3 4 5 14 8 24 6 9 -1 23
2 30 8 6 5 12 6 12 2 0 -4 6 -2 13 4 8 6 22 12 33 14 10 1 25 6 32 10 6 5 12
5 12 1 0 -3 7 -1 15 6 9 8 15 8 15 2 0 -6 -5 -12 -11 -14 -7 -2 -6 -8 4 -16
12 -10 17 -10 23 -1 5 8 3 9 -6 4 -10 -6 -12 -4 -7 9 4 10 7 22 7 27 0 6 5 7
10 4 6 -4 8 -10 6 -14 -3 -4 0 -13 6 -21 8 -12 9 -12 4 2 -3 10 -1 20 4 23 6
4 10 1 10 -5 0 -6 5 -8 11 -4 8 4 7 9 -2 15 -7 4 -16 6 -21 3 -4 -3 -1 8 7 23
18 33 19 53 4 53 -5 0 -7 5 -4 10 4 6 10 8 15 5 14 -9 23 16 11 28 -9 9 -11 7
-6 -8 6 -20 6 -20 -9 -1 -14 17 -14 20 2 33 9 8 12 12 6 9 -7 -3 -11 6 -12 25
0 19 3 27 11 23 7 -3 4 1 -5 9 -10 8 -15 17 -11 20 3 4 12 2 20 -4 9 -9 13 -8
13 0 0 6 -5 11 -11 11 -5 0 -7 4 -4 10 4 6 -1 7 -11 3 -15 -5 -14 -3 2 23 17
26 17 27 1 15 -19 -15 -24 -2 -5 17 7 7 8 12 3 12 -5 0 0 6 11 14 18 14 18 16
2 30 -10 9 -13 11 -8 4 14 -17 12 -28 -4 -28 -9 0 -12 10 -10 32 2 17 6 34 9
36 3 3 0 11 -6 18 -7 8 -6 14 2 20 8 5 9 3 4 -6 -6 -9 -4 -11 5 -5 10 6 10 11
-3 20 -9 7 -14 15 -10 18 3 4 12 2 20 -4 9 -9 13 -8 13 0 0 6 -5 11 -11 11 -5
0 -7 4 -4 10 3 6 -1 7 -10 4 -15 -6 -15 -4 -1 29 10 26 12 39 4 43 -6 4 -8 3
-4 -4 3 -6 2 -13 -3 -16 -14 -9 -7 19 9 39 11 14 11 16 0 13 -9 -2 -14 6 -15
22 0 14 -5 24 -10 24 -6 -1 -129 -41 -275 -89 -146 -48 -269 -88 -275 -89 -5
-2 -17 -6 -25 -9 -125 -49 -576 -186 -705 -213 -83 -18 -253 -6 -239 17 3 5
-1 7 -8 4 -7 -3 -26 7 -43 21 -16 14 -25 23 -18 20 6 -4 15 -1 19 6 4 7 4 10
-1 6 -12 -12 -47 12 -41 28 3 8 1 14 -4 14 -11 0 -21 28 -36 105 -3 17 -7 161
-8 320 l-2 290 25 17 c29 20 21 24 -12 6 -19 -10 -20 -9 -10 4 7 8 10 17 7 21
-3 3 -1 15 6 26 7 15 7 21 0 21 -8 0 -8 6 0 20 6 11 8 20 4 20 -3 0 -1 7 6 15
7 8 10 15 6 15 -3 0 5 25 19 55 13 30 21 55 17 55 -4 1 4 10 17 20 13 11 20
20 16 20 -3 0 1 7 10 16 9 9 23 28 32 41 15 22 17 22 38 9 21 -14 24 -14 29 1
5 13 9 13 24 2 15 -13 16 -12 3 4 -9 11 -10 17 -2 17 6 0 11 4 11 8 0 5 -7 9
-15 9 -8 0 -13 -2 -10 -5 5 -5 -20 -32 -30 -32 -3 0 -3 5 1 12 4 6 3 8 -4 4
-6 -3 -14 -1 -18 6 -4 7 -4 10 1 6 4 -4 14 0 22 10 10 11 12 12 8 2 -4 -8 1
-6 9 4 9 11 16 14 16 7 0 -7 3 -10 8 -8 12 8 54 -12 47 -23 -3 -6 1 -7 10 -4
15 6 85 -21 85 -33 0 -3 -6 -3 -13 0 -8 3 -14 -1 -14 -9 0 -12 4 -12 24 1 19
13 27 13 46 3 12 -6 27 -13 32 -14 6 -1 24 -8 40 -15 17 -7 33 -13 38 -14 4
-2 10 -4 15 -5 4 -2 12 -4 17 -5 6 -1 22 -7 38 -13 15 -7 39 -14 54 -16 14 -3
31 -11 37 -17 8 -9 8 -10 -1 -5 -6 3 -15 1 -19 -5 -4 -8 -3 -9 4 -5 7 4 12 1
12 -6 1 -8 4 -7 10 4 6 10 18 14 30 11 11 -3 17 -9 14 -14 -3 -5 2 -6 10 -3 8
3 21 2 28 -2 7 -5 15 -9 18 -10 3 -1 20 -5 38 -9 17 -4 32 -14 32 -21 0 -8 5
-14 11 -14 5 0 7 5 4 10 -3 6 -1 10 6 10 6 0 9 -8 6 -19 -3 -13 0 -18 12 -16
9 1 27 -5 41 -13 l25 -14 -25 20 c-13 11 -28 18 -32 16 -4 -3 -8 0 -8 6 0 8 7
9 18 5 9 -4 23 -8 30 -8 6 0 12 -4 12 -9 0 -5 4 -7 8 -4 5 3 21 -2 36 -10 16
-7 35 -14 42 -14 8 0 31 -7 52 -16 35 -15 36 -16 18 -30 -11 -8 -16 -14 -11
-14 5 0 16 7 25 15 13 12 23 12 53 3 20 -6 37 -17 37 -25 0 -7 5 -13 11 -13 5
0 7 5 4 10 -3 6 -4 10 -1 10 14 0 122 -46 128 -55 5 -6 8 -4 8 5 0 11 3 12 8
3 4 -6 19 -14 33 -16 42 -8 109 -30 109 -36 0 -3 12 -7 27 -8 16 -1 34 -11 46
-27 18 -25 20 -26 34 -9 14 17 14 17 9 0 -4 -13 -2 -16 7 -10 18 11 37 12 37
2 0 -6 5 -7 10 -4 5 3 10 1 10 -5 0 -6 4 -8 10 -5 6 3 16 3 23 -2 6 -4 21 -9
32 -10 11 -2 24 -8 29 -13 6 -6 22 -10 37 -10 16 0 30 -7 34 -17 6 -16 10 -14
31 12 25 31 32 28 14 -6 -7 -13 -7 -19 0 -19 5 0 10 7 10 15 0 8 5 15 11 15 5
0 7 -5 3 -11 -5 -8 -1 -8 14 0 27 14 35 28 17 28 -8 0 -12 -4 -9 -9 3 -4 1 -8
-5 -8 -5 0 -13 5 -16 10 -3 6 -1 10 4 10 21 0 26 2 40 13 8 7 12 7 9 2 -4 -6
2 -16 13 -23 10 -7 19 -8 19 -3 0 5 -6 11 -12 14 -10 4 -10 7 -1 17 10 11 14
9 23 -11 l10 -24 -3 27 c-3 19 0 25 10 21 7 -3 13 -1 13 4 0 10 14 13 57 14
13 1 20 6 16 12 -3 5 -1 7 5 3 6 -3 13 -2 17 4 4 6 11 8 16 5 5 -4 9 -2 9 3 0
5 7 9 15 9 8 0 12 -4 9 -9 -10 -15 6 -8 26 12 12 12 25 18 30 15 5 -3 12 -1
15 5 4 6 15 8 26 5 11 -4 18 -3 17 2 -2 4 2 9 7 11 10 2 11 -1 14 -33 0 -8 6
-15 11 -15 7 0 7 6 1 18 -11 20 -4 35 19 40 8 2 28 10 44 18 20 9 33 11 41 4
6 -5 15 -7 18 -3 4 3 7 0 7 -8 0 -11 2 -11 10 1 12 18 14 40 2 25 -4 -5 -14
-11 -22 -13 -11 -3 -12 0 -4 8 6 6 18 12 25 13 8 2 20 6 27 11 7 4 16 6 19 3
8 -9 -7 -28 -18 -22 -5 4 -9 1 -9 -4 0 -14 17 -14 25 -1 5 8 11 7 21 -1 12
-10 17 -9 27 0 9 10 8 12 -8 9 -23 -4 -28 23 -5 29 13 4 13 3 0 -6 -9 -7 -11
-11 -3 -11 7 0 16 7 21 16 9 17 32 12 32 -7 0 -6 -4 -7 -10 -4 -5 3 -10 1 -10
-5 0 -7 6 -10 13 -7 6 2 11 14 10 26 -3 21 -2 21 23 5 19 -13 28 -14 37 -5 6
6 7 11 1 11 -5 0 -2 5 6 11 13 9 13 10 0 6 -8 -2 -14 -10 -12 -17 2 -8 -3 -10
-13 -6 -9 3 -19 6 -21 6 -2 0 -4 5 -4 12 0 6 3 9 6 5 4 -3 19 0 35 9 16 8 29
12 29 8 0 -4 7 -1 15 6 8 7 15 9 15 5 0 -4 7 -2 15 5 8 7 15 9 15 5 0 -4 7 -2
15 5 8 7 15 9 15 5 0 -4 7 -2 15 5 8 7 15 9 15 5 0 -4 6 -2 13 4 8 6 16 9 19
6 3 -3 26 3 52 14 25 11 46 18 46 14 0 -3 6 0 13 6 8 6 22 12 33 14 10 1 25 6
31 10 7 5 21 3 30 -3 15 -9 14 -10 -7 -5 -20 5 -22 4 -8 -5 20 -12 44 -4 52
17 5 13 4 14 -8 4 -9 -7 -17 -8 -20 -2 -5 8 49 27 56 20 2 -1 14 4 28 11 28
16 31 17 61 19 11 0 17 5 14 11 -3 6 1 7 9 4 9 -3 16 -1 16 5 0 11 31 3 40
-10 3 -5 12 2 19 14 13 20 13 21 -2 8 -10 -7 -17 -9 -17 -3 0 5 7 13 16 16 22
8 36 7 30 -2 -2 -4 -1 -14 5 -22 7 -13 9 -13 10 0 1 8 2 22 3 30 0 8 6 15 11
15 6 1 19 6 30 12 11 6 28 9 38 8 9 -2 17 1 17 7 0 6 6 6 15 -2 8 -7 12 -16 9
-21 -3 -5 0 -9 5 -9 14 0 14 17 1 25 -5 3 -10 11 -10 17 0 6 3 8 7 5 3 -4 11
-2 18 3 8 7 12 5 12 -5 0 -8 -5 -11 -10 -8 -6 3 -7 1 -3 -6 6 -9 11 -9 21 -1
10 8 15 6 20 -10 3 -11 10 -18 15 -15 4 3 15 -6 24 -19 12 -19 12 -26 3 -30
-6 -3 -4 -4 6 -3 13 1 28 -14 47 -48 34 -58 74 -180 67 -199 -3 -8 0 -19 6
-25 7 -7 11 -107 11 -318 0 -261 -3 -320 -18 -388 -33 -143 -96 -198 -233
-200 -60 -1 -182 17 -268 41 -11 3 -27 7 -35 9 -8 2 -16 4 -17 5 -2 2 -6 3
-10 4 -5 0 -28 7 -53 15 -25 7 -52 15 -60 18 -8 2 -16 3 -16 1 -1 -2 -12 6
-25 17 -12 11 -19 14 -15 7 6 -11 4 -11 -10 -3 -11 5 -47 18 -81 28 -33 10
-60 20 -58 23 2 3 -10 6 -26 7 -16 1 -39 8 -51 14 -13 7 -34 14 -47 15 -13 2
-27 8 -31 14 -4 7 -10 11 -14 10 -17 -6 -67 11 -61 20 3 6 0 7 -9 4 -14 -5
-143 33 -156 46 -3 3 -18 7 -35 9 -16 1 -34 6 -40 10 -5 4 -30 13 -55 20 -25
6 -54 16 -65 21 -40 17 -157 51 -162 46 -7 -7 -7 -612 1 -624 3 -5 26 -15 51
-22 25 -7 45 -16 45 -19 0 -4 8 -7 18 -8 9 -1 26 -4 37 -6 11 -3 23 -6 28 -6
4 -1 7 -9 7 -18 0 -11 3 -14 8 -7 10 16 44 14 38 -2 -3 -9 1 -11 11 -7 10 4
14 2 9 -5 -3 -6 -2 -14 4 -17 6 -4 9 -1 8 6 -2 6 3 14 11 17 8 2 11 0 7 -6 -3
-5 1 -13 10 -16 8 -3 12 -2 9 3 -6 10 26 3 76 -17 15 -6 30 -8 33 -5 3 4 6 1
6 -5 0 -15 -17 -24 -23 -12 -3 6 -4 5 -3 -2 3 -13 33 -18 51 -8 13 8 23 6 60
-9 17 -7 41 -15 54 -17 38 -8 62 -24 54 -37 -4 -7 1 -6 11 2 12 10 20 11 24 4
4 -5 15 -9 25 -7 9 1 17 -2 17 -8 0 -6 -8 -7 -17 -3 -14 5 -15 3 -7 -5 9 -9
17 -9 32 -1 12 7 23 7 26 2 4 -5 0 -11 -6 -14 -7 -3 4 -3 25 -2 25 3 35 0 30
-7 -4 -7 0 -9 10 -5 9 3 19 2 22 -3 4 -6 1 -10 -6 -10 -7 0 -10 -3 -7 -6 4 -3
16 -1 27 6 13 7 21 7 21 1 0 -6 7 -8 15 -5 9 4 15 0 15 -10 0 -9 5 -16 11 -16
5 0 8 4 5 8 -3 5 23 0 57 -11 34 -11 66 -26 70 -33 4 -8 13 -14 20 -14 7 0 6
4 -3 10 -12 8 -12 10 -1 10 8 0 20 -8 28 -17 8 -10 12 -12 8 -5 -8 15 -2 15
40 -2 18 -8 36 -12 39 -8 12 11 6 -14 -6 -28 -7 -8 -4 -7 8 3 11 9 23 15 26
12 3 -3 18 -8 34 -11 15 -3 38 -16 50 -30 13 -13 27 -24 31 -24 4 0 0 7 -9 14
-24 18 -23 29 2 16 11 -6 20 -8 20 -4 0 3 6 1 13 -5 8 -6 17 -8 20 -4 4 3 17
-2 29 -13 12 -10 18 -13 13 -5 -5 9 -3 12 6 9 8 -3 14 -12 14 -21 0 -22 6 -23
30 -9 11 6 15 12 10 12 -6 0 -16 -5 -23 -12 -9 -9 -12 -9 -12 0 0 19 28 26 45
12 8 -6 19 -9 25 -5 5 3 13 -1 16 -9 3 -9 10 -16 16 -16 5 0 6 5 3 10 -7 11
18 14 29 3 4 -4 13 -8 19 -9 7 0 20 -2 30 -2 10 -1 15 -6 12 -12 -3 -5 -1 -10
4 -10 6 0 11 5 11 11 0 8 6 7 17 -2 14 -12 16 -12 9 1 -4 8 2 4 13 -10 12 -14
19 -18 15 -8 -5 14 0 16 28 11 18 -3 38 -6 44 -7 6 -1 24 -10 40 -20 16 -10
23 -13 17 -5 -7 7 -13 17 -13 22 0 4 6 5 13 0 6 -4 73 -8 147 -8 88 -1 134 -4
133 -11 -1 -6 5 -11 13 -11 10 0 11 4 4 11 -15 15 -12 21 13 23 32 3 51 8 62
15 11 7 48 -16 40 -24 -3 -2 1 -5 9 -5 11 0 12 4 3 18 -6 10 -15 15 -19 13 -4
-3 -8 0 -8 6 0 6 6 10 13 9 20 -2 57 13 57 24 0 6 3 7 7 4 3 -4 17 3 31 15 13
13 27 22 30 22 4 -1 6 2 4 7 -1 5 5 10 13 10 8 1 20 3 25 4 6 1 15 3 20 4 6 0
10 6 10 12 0 8 -5 8 -15 -1 -20 -17 -19 -5 1 19 10 11 24 17 33 13 14 -5 14
-4 1 13 -14 17 -13 18 3 12 11 -4 17 -2 16 6 -3 27 2 48 11 42 5 -3 7 -13 4
-23 -5 -16 -5 -16 9 0 8 10 18 14 23 10 4 -4 3 0 -4 9 -12 16 -7 29 10 29 5 0
6 -4 3 -10 -4 -6 1 -7 11 -3 15 5 15 7 0 15 -9 5 -14 13 -11 19 3 5 -2 6 -12
3 -14 -5 -15 -4 -4 4 7 5 11 14 7 20 -3 6 -2 13 4 17 6 4 8 11 5 16 -4 5 -2 9
4 9 6 0 8 6 6 12 -3 7 -1 19 4 27 8 12 12 12 24 2 13 -10 15 -9 12 6 -1 10 1
23 6 29 5 7 3 11 -6 11 -8 0 -12 -4 -9 -9 3 -4 0 -8 -7 -8 -7 0 -9 8 -5 23 4
12 8 31 9 42 1 11 9 26 17 33 8 8 10 11 4 8 -6 -3 -10 10 -10 35 0 34 3 39 18
36 10 -3 21 -1 24 4 3 5 10 6 16 3 7 -4 8 -2 4 5 -6 9 -11 9 -22 0 -11 -9 -14
-9 -14 1 0 7 -7 10 -17 5 -14 -5 -15 -3 -6 6 6 6 9 19 6 28 -4 11 -1 10 11 -4
l16 -20 -7 20 c-3 11 -9 25 -12 30 -9 15 -8 94 1 89 4 -3 8 2 8 10 0 8 -5 18
-10 21 -6 4 -7 12 -3 18 12 20 14 47 2 47 -5 0 -7 5 -4 10 4 6 12 7 18 3 7 -4
6 0 -2 10 -8 11 -11 28 -7 47 3 18 1 30 -5 30 -6 0 -7 5 -4 10 4 6 12 7 18 3
9 -5 9 -3 0 8 -7 9 -11 40 -9 77 1 34 -1 62 -6 62 -5 0 -6 5 -3 10 4 6 10 8
15 5 5 -3 12 -1 15 5 4 6 1 9 -7 8 -9 -2 -12 6 -11 25 1 15 -3 27 -8 27 -6 0
-7 5 -4 10 4 6 10 8 15 5 5 -3 12 0 16 6 4 7 3 10 -2 7 -5 -3 -15 0 -22 8 -8
9 -9 14 -2 14 6 0 8 5 4 12 -5 8 -2 9 9 5 9 -3 19 -2 22 4 4 5 3 9 -2 8 -4 -1
-17 -1 -28 0 -17 2 -16 4 8 17 15 8 27 17 27 20 0 2 -9 0 -21 -6 -11 -7 -24
-8 -27 -4 -4 4 -1 9 6 11 13 5 17 33 4 33 -4 0 -9 11 -10 25 -1 14 2 25 6 25
5 0 9 16 9 35 0 21 -4 31 -8 23 -4 -6 -5 -16 -2 -22 3 -5 2 -6 -4 -3 -5 3 -8
22 -7 42 2 20 0 34 -5 31 -10 -6 -8 45 2 62 6 8 4 12 -4 10 -18 -4 -18 24 1
40 13 11 13 11 -1 6 -20 -6 -26 2 -34 44 -3 18 -12 53 -21 79 -13 38 -13 47
-2 54 12 8 4 13 -15 10 -5 -1 -6 3 -2 9 3 5 2 10 -3 10 -8 0 -24 41 -24 60 1
3 -6 9 -14 13 -13 7 -13 11 -2 25 7 9 8 13 3 10 -6 -4 -21 10 -34 29 -12 19
-18 32 -12 28 6 -3 11 -1 11 5 0 6 6 8 13 4 7 -4 8 -3 4 2 -5 5 -16 9 -25 9
-19 0 -65 64 -58 81 3 8 -1 11 -9 7 -9 -3 -18 3 -22 13 -4 11 -19 31 -35 46
-19 17 -26 32 -22 45 4 11 3 14 -3 6 -13 -18 -45 10 -37 33 4 13 3 15 -3 6 -7
-10 -20 -3 -51 28 -23 22 -47 40 -52 40 -6 0 -10 5 -10 11 0 5 4 7 10 4 6 -3
7 1 4 10 -5 11 -10 13 -19 5 -9 -8 -15 -8 -20 0 -6 9 1 14 18 11 4 0 7 5 8 12
0 6 23 32 51 56 46 38 53 42 63 27 20 -27 27 -18 8 11 -10 15 -13 24 -8 21 6
-3 16 0 23 8 7 8 10 14 7 14 -3 0 9 16 26 35 29 31 70 50 54 25 -4 -6 -11 -8
-16 -5 -5 4 -9 4 -9 1 0 -3 9 -10 19 -16 14 -7 22 -7 27 2 5 7 3 8 -5 4 -8 -5
-12 -3 -10 5 3 29 -1 40 -13 33 -11 -7 17 33 33 46 3 3 14 22 24 43 9 20 21
37 26 37 5 0 9 7 9 15 0 8 5 15 11 15 5 0 7 -5 3 -11 -7 -11 12 -29 31 -29 6
0 3 5 -5 10 -8 5 -11 10 -6 10 5 0 1 10 -10 22 -10 12 -13 18 -5 13 11 -6 13
-4 8 8 -3 9 -2 19 3 22 6 4 10 15 10 25 0 10 4 21 9 25 8 5 9 -10 2 -58 0 -5
-6 -5 -13 -1 -7 5 -8 3 -4 -5 6 -9 13 -8 26 6 13 14 15 21 6 32 -9 12 -8 13 7
8 16 -6 16 -5 1 18 -14 21 -14 28 -3 42 8 9 14 19 14 22 0 3 9 5 20 4 11 -1
14 1 7 4 -10 4 -10 8 0 21 8 10 9 13 1 9 -6 -4 -15 -2 -19 4 -5 8 1 10 17 7
22 -4 25 -1 26 34 1 21 -3 38 -8 38 -6 0 -7 -5 -4 -10 4 -6 1 -18 -7 -27 -9
-12 -9 -15 0 -9 6 4 12 2 12 -3 0 -6 -7 -11 -16 -11 -12 0 -14 5 -9 18 4 9 7
25 7 35 0 9 4 17 10 17 5 0 7 7 4 16 -5 12 -1 14 16 9 18 -6 19 -5 7 8 -8 8
-18 12 -23 9 -5 -3 -5 1 -1 9 10 15 15 42 16 74 0 16 2 17 9 5 9 -13 10 -13
11 0 0 8 2 25 3 37 1 12 0 20 -4 18 -4 -2 -5 15 -3 38 2 23 4 52 5 64 0 21 2
21 27 6 23 -13 24 -13 7 0 -10 9 -15 20 -11 26 3 7 0 8 -10 5 -11 -5 -14 -2
-9 10 3 9 10 13 15 10 5 -3 6 2 2 11 -3 10 0 21 8 26 12 7 12 10 0 21 -8 7
-11 8 -8 3 3 -6 -2 -19 -10 -30 -15 -19 -15 -19 -8 5 4 14 14 31 24 39 14 11
13 12 -9 6 -22 -7 -23 -6 -11 9 11 13 11 16 0 16 -8 0 -6 6 7 16 10 8 12 12 4
8 -8 -4 -12 -4 -8 0 4 5 3 19 -2 32 -6 15 -6 24 0 24 6 0 10 -5 10 -12 0 -6 2
-9 5 -6 3 3 -2 21 -10 42 -8 20 -12 36 -8 35 5 -1 17 0 28 1 17 2 16 3 -5 9
-14 5 -24 14 -22 22 2 8 4 39 5 70 1 42 4 56 14 52 7 -3 13 1 13 8 0 7 -3 9
-7 6 -3 -4 -12 -2 -20 4 -11 10 -10 14 4 25 12 9 14 13 5 14 -7 0 -10 5 -7 10
3 6 1 10 -5 10 -6 0 -8 5 -5 10 4 6 11 8 16 5 10 -7 1 24 -14 43 -5 7 -6 12 0
12 5 0 15 -6 23 -12 12 -11 12 -10 2 3 -6 9 -8 20 -4 24 4 5 1 5 -7 0 -9 -5
-12 -3 -9 6 3 8 10 13 15 12 5 -1 10 5 10 12 0 10 -4 12 -12 5 -9 -7 -14 -6
-18 4 -4 9 -2 18 3 21 6 4 10 11 10 16 0 6 -4 8 -9 4 -6 -3 -8 7 -7 22 2 16
-1 36 -6 47 -7 12 -7 16 0 12 6 -3 13 -2 17 4 3 5 -2 10 -11 10 -16 0 -16 1 2
15 14 11 15 14 2 9 -12 -4 -16 -1 -14 13 2 10 1 23 -3 28 -11 19 -11 45 0 45
6 0 3 7 -5 16 -9 8 -16 23 -17 32 -1 32 -8 58 -23 86 -8 16 -12 35 -9 42 3 8
1 14 -5 14 -5 0 -13 7 -16 16 -5 12 -3 14 7 8 7 -5 6 -2 -3 6 -8 8 -28 35 -45
60 -30 45 -103 120 -118 120 -5 0 -5 4 -2 10 4 6 -1 7 -11 3 -12 -4 -15 -3
-10 6 4 6 4 10 -1 9 -4 -1 -28 6 -53 16 -25 11 -51 20 -59 22 -7 1 -36 8 -64
15 -78 19 -379 15 -439 -6 -7 -2 -29 -7 -48 -10 -78 -13 -100 -18 -215 -46
-142 -36 -250 -67 -400 -117 -60 -20 -112 -37 -115 -37 -3 0 -140 -45 -305
-100 -165 -54 -302 -99 -305 -100 -61 -15 -272 -90 -277 -98 -9 -14 -7 -613 2
-628 6 -8 10 -7 16 2 8 12 11 11 19 -1 8 -13 10 -12 10 3 0 9 7 17 15 17 8 0
13 -6 11 -12 -1 -7 -1 -10 1 -5 3 4 9 7 14 7 6 0 8 -4 5 -8 -3 -5 1 -9 9 -9
12 0 12 4 -2 20 -10 11 -12 17 -5 13 7 -4 12 -2 12 4 0 7 7 10 15 7 8 -4 17
-2 21 4 3 6 11 3 19 -8 13 -17 14 -17 9 3 -5 20 9 28 68 38 3 1 10 5 14 9 4 4
13 -2 19 -14 11 -19 13 -19 18 -5 4 10 3 15 -3 11 -6 -3 -10 -2 -10 2 0 5 14
14 30 20 34 13 33 13 20 -22 -7 -17 -7 -24 0 -20 6 3 10 14 10 23 0 14 2 15 9
2 6 -8 7 -18 4 -24 -3 -5 -1 -6 5 -2 9 5 9 13 2 26 -11 21 -14 47 -4 37 4 -3
15 -2 26 4 20 11 53 20 76 21 6 1 12 6 12 11 0 6 3 7 6 4 4 -3 16 -2 28 4 20
10 20 10 2 -5 -11 -9 -23 -16 -28 -16 -4 0 -8 -10 -7 -22 0 -23 0 -23 9 -2 11
28 38 38 59 22 14 -12 14 -11 3 4 -19 24 -6 38 31 32 24 -3 27 -2 12 4 -18 8
-18 9 5 14 14 3 33 9 43 13 10 4 17 3 17 -5 0 -6 -4 -9 -8 -6 -4 2 -14 0 -22
-6 -12 -8 -12 -9 3 -4 10 3 17 0 17 -7 0 -8 4 -6 10 3 9 13 10 13 10 0 0 -13
1 -13 10 0 5 8 10 20 10 25 0 6 -5 3 -10 -5 -6 -9 -10 -10 -10 -3 0 14 25 29
55 34 11 2 23 8 26 12 3 5 9 2 12 -6 3 -9 -1 -18 -9 -21 -8 -3 -14 -1 -14 4 0
6 -8 5 -19 -2 -19 -11 -22 -31 -7 -45 4 -4 7 -3 6 2 -5 23 1 37 14 32 18 -7
56 20 56 40 0 14 2 14 20 -2 11 -10 17 -21 15 -26 -3 -4 -1 -10 3 -13 5 -3 8
7 7 22 -1 15 -7 26 -14 24 -7 -1 -10 2 -6 8 4 6 16 8 27 4 14 -4 18 -2 14 5
-4 6 -1 9 7 5 8 -3 20 -15 26 -27 10 -21 11 -21 6 -1 -4 14 0 21 10 21 8 0 15
-4 15 -9 0 -4 5 -8 11 -8 8 0 8 4 0 14 -7 8 -21 13 -32 11 -10 -2 -19 1 -19 7
0 5 7 8 15 4 8 -3 15 -1 15 5 0 6 4 8 9 4 5 -3 12 -1 16 5 4 6 11 8 16 5 5 -4
9 -2 9 3 0 5 7 9 16 9 15 0 14 -2 -1 -13 -10 -8 -22 -11 -28 -7 -6 4 -7 1 -2
-7 5 -9 4 -11 -3 -6 -17 10 -15 1 4 -14 12 -11 15 -11 12 0 -2 7 3 15 11 18 9
3 11 0 6 -8 -5 -9 -4 -11 4 -6 6 4 9 12 6 17 -4 5 -1 9 4 9 6 0 11 8 11 18 0
14 4 12 21 -8 17 -20 18 -21 10 -4 -9 18 -7 23 7 26 26 7 59 -6 43 -17 -8 -4
-16 -2 -21 5 -5 8 -10 8 -14 2 -8 -14 24 -24 39 -12 6 5 14 9 16 7 3 -1 -4 6
-14 16 -16 14 -17 17 -3 17 9 0 21 -9 28 -20 14 -22 29 -27 25 -7 -1 7 7 12
21 11 23 -1 30 10 12 21 -5 3 -10 1 -10 -6 0 -7 -3 -9 -7 -6 -3 4 -12 2 -18
-3 -9 -8 -14 -6 -18 5 -4 8 -3 14 1 14 4 -1 9 0 12 1 3 1 12 3 20 5 8 2 26 7
39 11 16 5 22 4 17 -4 -3 -6 -1 -14 5 -18 7 -4 9 -3 6 3 -4 6 0 16 8 23 8 7
15 9 15 5 0 -4 6 -2 13 4 8 6 17 8 20 4 4 -3 14 0 24 8 9 8 14 9 10 3 -4 -7
-1 -14 6 -16 17 -7 38 2 31 13 -10 17 25 9 36 -8 11 -17 11 -17 6 0 -4 11 0
17 10 17 10 0 14 -6 10 -15 -3 -8 -1 -15 4 -15 6 0 10 8 10 18 0 14 2 15 10 2
6 -10 10 -11 10 -2 0 6 5 12 11 12 5 0 7 -4 4 -10 -3 -5 -1 -10 4 -10 6 0 11
6 11 13 0 8 3 7 10 -3 5 -8 12 -11 16 -7 4 4 13 2 21 -4 7 -6 13 -9 13 -5 0 3
9 -2 19 -11 11 -9 17 -23 14 -32 -4 -14 -3 -14 6 -1 10 13 14 11 31 -10 11
-14 18 -31 15 -37 -2 -7 0 -13 6 -13 6 0 7 -4 4 -10 -3 -5 -2 -10 3 -10 5 0
13 -19 17 -42 4 -24 9 -56 13 -73 3 -16 5 -160 5 -320 0 -330 -9 -400 -69
-522 -38 -77 -123 -173 -154 -173 -11 0 -25 6 -32 13 -7 8 -20 12 -30 9 -10
-2 -18 1 -18 7 0 6 -9 11 -20 11 -11 0 -20 5 -20 11 0 5 -5 7 -10 4 -6 -4 -17
-1 -25 5 -8 7 -15 9 -15 5 0 -4 -6 -3 -12 2 -7 5 -46 20 -85 33 -40 14 -73 28
-73 33 0 4 -4 6 -9 3 -5 -4 -22 -1 -38 6 -15 6 -31 12 -35 13 -5 2 -10 4 -13
5 -3 1 -8 3 -12 4 -7 1 -40 12 -163 51 -3 1 -26 8 -52 15 -26 8 -45 16 -43 19
2 3 -13 7 -33 9 -19 1 -42 8 -50 14 -8 7 -20 13 -26 14 -28 2 -76 17 -76 24 0
3 -7 7 -15 7 -28 0 -274 81 -294 97 -12 9 -13 8 -6 -4 7 -12 6 -13 -6 -4 -8 6
-23 14 -34 16 -11 3 -92 29 -180 58 -238 77 -201 76 -392 13 -93 -30 -172 -56
-178 -57 -5 -2 -17 -6 -25 -9 -8 -3 -143 -47 -300 -98 -466 -150 -657 -214
-815 -273 -129 -49 -153 -55 -172 -45 -12 7 -20 15 -18 19 3 4 -5 10 -16 13
-14 4 -20 11 -16 21 4 9 1 13 -6 11 -12 -5 -77 83 -84 115 -1 3 -7 19 -14 35
-16 40 -21 67 -11 61 5 -3 9 1 9 8 0 9 -7 12 -16 8 -14 -5 -14 -4 -2 11 8 10
11 20 7 24 -3 3 -6 0 -6 -7 0 -20 -14 -2 -15 20 -1 15 1 17 12 9 17 -15 17 -4
0 13 -18 18 -30 68 -17 68 7 0 8 5 3 13 -11 16 -11 337 0 330 4 -3 6 -12 3
-20 -3 -8 -1 -11 4 -8 14 8 13 21 -3 37 -11 12 -19 78 -9 78 3 0 10 -7 17 -17
9 -13 14 -13 20 -3 5 9 4 11 -3 6 -7 -4 -12 -3 -12 3 0 5 5 13 10 16 6 3 10
12 10 18 0 7 -5 4 -11 -5 -18 -31 -35 -10 -35 42 0 28 4 50 9 50 4 0 6 -9 2
-19 -3 -11 -2 -22 3 -24 12 -8 9 40 -5 54 -19 19 -5 41 19 28 16 -9 19 -8 13
2 -6 9 -3 11 9 6 10 -4 15 -3 11 3 -4 6 -12 10 -18 9 -25 -3 -34 1 -34 16 0
11 4 12 11 5 5 -5 15 -10 20 -10 7 0 6 3 -1 8 -19 12 -24 60 -7 66 9 3 12 10
9 16 -3 5 -1 10 4 10 15 0 14 -6 -5 -38 -11 -18 -12 -22 -2 -10 8 10 17 16 20
13 9 -10 5 30 -5 43 -7 9 -4 19 9 34 33 38 47 53 53 53 3 1 16 6 28 13 13 7
24 8 28 3 7 -12 -12 -24 -25 -16 -6 3 -13 -1 -16 -10 -6 -13 -9 -14 -16 -3 -6
9 -7 6 -3 -9 5 -17 3 -22 -8 -17 -7 2 -19 -1 -25 -9 -9 -11 -8 -14 3 -14 8 0
12 4 9 9 -3 4 -1 8 5 8 5 0 12 -8 14 -17 4 -17 5 -17 6 -1 0 10 7 16 14 14 6
-1 9 -1 5 1 -13 7 -9 23 5 19 6 -1 9 -1 5 1 -5 3 -8 9 -8 14 0 6 4 7 10 4 18
-11 50 -14 50 -4 0 5 -4 9 -9 9 -5 0 -8 7 -7 15 4 25 14 28 21 6 7 -24 20 -27
28 -7 4 10 1 13 -9 9 -7 -3 -14 -1 -14 4 0 5 31 9 69 9 38 0 68 -3 66 -6 -2
-4 18 -7 45 -7 54 -1 74 -9 64 -26 -5 -8 -3 -8 7 1 19 17 28 15 39 -10 7 -18
9 -19 9 -5 1 9 6 17 12 17 6 0 8 -7 5 -17 -4 -10 -4 -14 0 -11 4 4 16 3 28 -3
21 -10 21 -10 1 7 -18 15 -18 16 -2 10 10 -3 23 -6 28 -6 6 0 7 -6 3 -12 -5
-9 -2 -9 9 1 9 7 17 9 17 4 0 -5 6 -10 13 -11 24 -2 47 -8 53 -15 4 -4 16 -7
26 -7 12 0 16 -4 12 -12 -5 -8 -2 -9 9 -5 10 4 30 1 45 -5 15 -6 38 -13 52
-15 13 -2 30 -9 37 -15 7 -6 13 -7 13 -3 0 4 7 2 15 -5 8 -7 15 -9 15 -5 0 4
7 2 15 -5 9 -7 18 -10 22 -7 3 4 15 1 27 -5 11 -7 26 -13 31 -13 6 -1 9 -6 8
-13 -2 -8 4 -9 22 -2 16 6 25 6 25 0 0 -6 8 -10 18 -10 11 0 24 -10 31 -22 6
-13 10 -16 7 -6 -4 14 0 15 24 8 16 -5 34 -11 40 -15 6 -3 22 -9 37 -11 15 -3
33 -10 40 -16 7 -6 13 -7 13 -2 0 4 7 -1 16 -12 8 -10 13 -14 9 -7 -3 8 1 11
12 8 39 -7 73 -25 73 -37 0 -9 3 -8 10 2 7 11 10 11 10 2 0 -7 6 -12 13 -11
28 3 48 -2 42 -11 -4 -6 3 -9 17 -6 13 2 29 -1 36 -6 6 -6 12 -7 12 -2 1 5 8
-2 16 -16 8 -14 13 -17 10 -7 -3 9 -1 17 4 17 6 0 10 -7 10 -15 0 -8 5 -15 11
-15 5 0 7 4 4 10 -4 6 2 7 17 1 15 -6 22 -15 20 -27 -3 -18 -3 -18 10 -1 12
16 17 17 41 6 25 -11 30 -10 50 11 12 13 15 18 5 11 -20 -15 -32 0 -23 29 4
12 2 20 -5 20 -7 0 -8 6 0 19 7 13 7 22 0 26 -6 4 -7 13 -1 23 4 9 6 24 3 32
-3 11 2 9 19 -5 l24 -20 -23 26 c-25 28 -24 75 0 91 7 4 8 8 2 8 -5 0 -15 -5
-22 -12 -15 -15 -15 -6 -1 26 7 14 15 23 20 21 13 -9 3 25 -11 38 -12 10 -12
9 -2 -4 11 -15 7 -29 -8 -29 -8 0 -3 60 5 68 3 3 0 11 -6 18 -7 8 -6 14 2 20
8 5 9 3 4 -6 -6 -9 -4 -11 5 -5 10 6 10 11 -3 20 -9 7 -14 15 -10 18 3 4 12 2
20 -4 9 -9 13 -8 13 0 0 6 -5 11 -11 11 -5 0 -7 4 -4 10 4 6 -1 7 -12 4 -14
-4 -12 0 6 15 13 12 20 25 16 29 -4 4 -10 1 -12 -5 -3 -7 -8 -13 -12 -13 -7 0
-7 12 -2 52 1 3 11 4 24 2 21 -4 21 -4 1 5 -21 9 -41 41 -26 41 12 0 9 37 -3
38 -5 0 -37 10 -69 21 -33 12 -65 21 -73 21 -7 0 -13 4 -13 8 0 4 -8 8 -17 9
-36 3 -153 50 -146 58 5 4 2 5 -5 1 -7 -4 -29 -2 -50 5 -20 7 -43 14 -51 15
-8 2 -17 6 -20 11 -3 4 -19 9 -36 11 -16 2 -32 8 -33 13 -2 5 -7 7 -12 4 -5
-3 -21 0 -37 7 -34 14 -39 15 -59 17 -8 0 -13 5 -10 10 4 5 -2 7 -13 4 -10 -3
-22 0 -25 6 -4 5 -13 8 -21 4 -8 -3 -15 -1 -15 4 0 5 -10 10 -22 10 -13 1 -24
7 -26 12 -2 5 -10 7 -18 4 -8 -3 -14 0 -14 7 0 6 -4 9 -9 6 -5 -3 -42 6 -82
20 -69 25 -92 31 -112 33 -5 1 -5 6 -1 13 4 7 3 8 -4 4 -13 -8 -132 24 -132
35 0 4 -10 5 -22 1 -16 -4 -19 -2 -13 8 5 8 4 11 -2 7 -6 -4 -49 4 -94 17
-113 33 -275 73 -323 80 -21 4 -41 8 -45 10 -3 2 -33 7 -66 11 -32 3 -63 9
-67 11 -9 6 -261 11 -303 7z m2255 -2113 c0 -5 5 -10 11 -10 5 0 7 6 3 13 -6
9 -5 9 8 0 8 -7 17 -10 20 -8 3 3 28 -3 56 -14 27 -11 51 -19 54 -18 2 1 -3
-4 -11 -10 -17 -15 -3 -17 18 -4 10 6 23 5 35 -2 20 -11 25 -12 54 -15 8 -1
10 -7 6 -14 -5 -8 0 -7 11 2 15 12 17 12 10 1 -6 -10 -4 -13 6 -9 8 3 25 1 39
-5 14 -5 36 -12 50 -14 13 -2 30 -9 37 -15 7 -6 13 -7 13 -3 0 4 6 2 14 -4 8
-6 18 -11 22 -10 20 3 34 -2 34 -12 0 -8 -4 -8 -13 0 -10 8 -14 7 -14 -3 0
-14 14 -16 34 -3 7 4 21 3 31 -2 11 -6 22 -7 26 -4 3 3 6 2 6 -3 0 -5 10 -11
22 -11 13 -1 28 -9 34 -18 6 -8 17 -15 25 -15 11 0 11 2 -1 10 -8 5 -10 10 -5
10 6 -1 18 -7 28 -15 11 -7 27 -12 38 -10 11 2 25 -5 33 -16 8 -12 15 -16 18
-9 2 8 13 7 37 -3 l34 -15 -34 -8 c-19 -4 -36 -8 -39 -9 -3 0 -11 -4 -18 -8
-25 -16 -695 -236 -704 -231 -4 3 -8 0 -8 -5 0 -6 -7 -11 -15 -11 -18 0 -132
37 -157 51 -10 5 -27 9 -37 9 -11 0 -23 5 -26 10 -4 6 -11 8 -16 5 -5 -4 -9
-2 -9 3 0 5 -6 9 -12 10 -24 1 -57 11 -77 22 -12 6 -21 8 -21 4 0 -3 -7 -1
-16 6 -8 8 -27 15 -42 16 -15 2 -28 8 -30 13 -2 5 -9 8 -17 5 -7 -3 -24 0 -37
7 -13 7 -27 13 -33 14 -25 2 -101 28 -114 38 -8 7 -17 11 -20 10 -7 -3 -70 16
-86 26 -5 3 -18 7 -29 8 -22 4 -55 22 -41 23 6 1 19 4 30 6 11 3 26 6 33 6 6
1 12 5 12 10 0 4 5 8 10 8 7 0 7 -6 0 -19 -18 -35 -11 -37 10 -3 21 35 33 41
28 16 -2 -10 5 -18 16 -20 14 -2 16 0 7 9 -16 16 -14 37 4 31 9 -4 15 0 15 7
1 8 7 3 14 -10 9 -16 16 -20 20 -12 4 6 12 9 17 5 5 -3 6 -10 3 -16 -4 -7 -2
-8 5 -4 9 6 9 11 1 21 -8 10 -9 19 -1 32 6 10 11 14 11 9 0 -5 7 -3 15 4 8 7
15 9 15 5 0 -4 7 -2 15 5 10 9 15 9 15 1 0 -6 -5 -11 -12 -11 -6 0 -4 -7 5
-18 10 -10 14 -22 10 -27 -5 -4 -2 -5 5 0 10 5 11 10 3 18 -16 16 -14 32 2 18
8 -6 17 -8 20 -4 10 10 8 33 -3 33 -5 0 -7 -8 -3 -17 5 -14 3 -15 -7 -6 -15
14 -3 36 16 29 8 -3 14 -1 14 3 0 14 30 6 41 -10 7 -11 9 -11 9 -1 0 7 5 10
10 7 6 -3 10 -1 10 5 0 6 4 9 9 6 5 -3 15 2 22 12 13 15 12 16 -3 3 -12 -9
-18 -10 -18 -2 0 10 14 15 23 9 2 -2 11 3 20 11 10 7 17 10 17 7 0 -4 9 -2 20
4 16 9 22 8 26 -5 6 -14 8 -14 19 1 11 15 14 15 41 -1 l29 -18 -25 24 c-14 13
-24 23 -22 22 2 -1 19 5 38 13 19 8 34 12 34 9 0 -4 6 -3 13 2 6 4 18 8 26 10
8 1 18 8 22 15 5 7 9 8 9 3 0 -6 10 -16 23 -24 17 -10 19 -11 10 0 -7 7 -13
18 -13 24 1 5 10 -1 20 -14 11 -13 20 -18 20 -13 0 6 -4 14 -10 17 -5 3 -10
11 -10 16 0 6 4 8 9 4 5 -3 12 -1 16 5 8 13 35 13 35 0z m-260 -74 c0 -3 -4
-8 -10 -11 -5 -3 -10 -1 -10 4 0 6 5 11 10 11 6 0 10 -2 10 -4z m-150 -56 c-8
-5 -17 -7 -19 -4 -3 3 1 9 9 14 8 5 17 7 19 4 3 -3 -1 -9 -9 -14z m-196 -65
c-7 -16 -24 -21 -24 -6 0 8 7 13 27 20 1 1 0 -6 -3 -14z m366 -885 c0 -5 -4
-10 -10 -10 -5 0 -10 5 -10 10 0 6 5 10 10 10 6 0 10 -4 10 -10z m270 -74 c0
-3 -4 -8 -10 -11 -5 -3 -10 -1 -10 4 0 6 5 11 10 11 6 0 10 -2 10 -4z m2655
-1196 c-3 -5 -11 -10 -16 -10 -6 0 -7 5 -4 10 3 6 11 10 16 10 6 0 7 -4 4 -10z
m-4091 -155 c3 -8 1 -15 -3 -15 -5 0 -11 7 -15 15 -3 8 -1 15 3 15 5 0 11 -7
15 -15z"/>
<path d="M3935 4231 c-3 -5 0 -13 6 -17 7 -4 9 -3 5 4 -3 5 0 13 6 15 9 4 10
6 1 6 -6 1 -14 -3 -18 -8z"/>
<path d="M4014 4218 c-5 -7 -2 -8 6 -3 9 6 12 4 8 -7 -4 -8 -1 -15 6 -15 17 0
16 25 0 31 -8 3 -16 0 -20 -6z"/>
<path d="M3871 4193 c7 -12 15 -20 18 -17 3 2 -3 12 -13 22 -17 16 -18 16 -5
-5z"/>
<path d="M3849 4187 c6 -8 7 -18 3 -22 -4 -5 -1 -5 6 -1 10 6 10 11 1 22 -6 8
-14 14 -16 14 -3 0 0 -6 6 -13z"/>
<path d="M3815 4180 c3 -5 11 -10 16 -10 6 0 7 5 4 10 -3 6 -11 10 -16 10 -6
0 -7 -4 -4 -10z"/>
<path d="M4065 4180 c-3 -6 1 -7 9 -4 18 7 21 14 7 14 -6 0 -13 -4 -16 -10z"/>
<path d="M3755 4170 c-4 -6 1 -7 11 -3 10 4 15 2 11 -3 -3 -6 5 -10 18 -10 13
0 21 4 19 8 -3 5 -9 6 -14 3 -5 -3 -11 -1 -15 5 -8 13 -22 13 -30 0z"/>
<path d="M3660 4135 c-6 -8 -10 -19 -8 -24 1 -6 8 1 15 14 13 28 11 31 -7 10z"/>
<path d="M3625 4131 c-3 -5 -2 -12 3 -15 5 -3 9 1 9 9 0 17 -3 19 -12 6z"/>
<path d="M3710 4131 c0 -6 4 -12 8 -15 5 -3 9 1 9 9 0 8 -4 15 -9 15 -4 0 -8
-4 -8 -9z"/>
<path d="M4257 4133 c-10 -9 -9 -23 1 -23 5 0 9 7 9 15 0 17 -1 18 -10 8z"/>
<path d="M4290 4131 c0 -6 4 -13 10 -16 6 -3 7 1 4 9 -7 18 -14 21 -14 7z"/>
<path d="M3610 4100 c0 -5 5 -10 11 -10 5 0 7 5 4 10 -3 6 -8 10 -11 10 -2 0
-4 -4 -4 -10z"/>
<path d="M4355 4100 c-3 -5 -1 -10 4 -10 6 0 11 5 11 10 0 6 -2 10 -4 10 -3 0
-8 -4 -11 -10z"/>
<path d="M4390 4101 c0 -6 4 -13 10 -16 6 -3 7 1 4 9 -7 18 -14 21 -14 7z"/>
<path d="M3513 4093 c-17 -6 -17 -20 0 -20 8 0 14 6 14 14 0 7 -1 13 -1 12 -1
0 -7 -3 -13 -6z"/>
<path d="M3580 4079 c0 -5 5 -7 10 -4 6 3 10 8 10 11 0 2 -4 4 -10 4 -5 0 -10
-5 -10 -11z"/>
<path d="M3413 4056 c5 -14 3 -17 -8 -12 -8 3 -15 1 -15 -4 0 -6 7 -10 16 -10
9 0 12 -5 8 -12 -4 -7 -3 -10 1 -5 14 12 16 45 3 53 -8 5 -9 2 -5 -10z"/>
<path d="M4478 4063 c7 -3 16 -2 19 1 4 3 -2 6 -13 5 -11 0 -14 -3 -6 -6z"/>
<path d="M4515 4050 c3 -5 8 -10 11 -10 2 0 4 5 4 10 0 6 -5 10 -11 10 -5 0
-7 -4 -4 -10z"/>
<path d="M4543 4047 c0 -7 9 -13 19 -13 10 0 18 1 18 3 0 1 -8 7 -18 12 -13 7
-19 6 -19 -2z"/>
<path d="M3316 4021 c-3 -5 2 -15 12 -22 15 -12 16 -12 5 2 -7 9 -10 19 -6 22
3 4 4 7 0 7 -3 0 -8 -4 -11 -9z"/>
<path d="M3201 3991 c-8 -5 -9 -11 -3 -15 5 -3 12 1 16 9 6 17 6 18 -13 6z"/>
<path d="M3255 3979 c-4 -6 -5 -12 -2 -15 2 -3 7 2 10 11 7 17 1 20 -8 4z"/>
<path d="M6717 5923 c-4 -3 -7 -11 -7 -17 0 -6 5 -5 12 2 6 6 9 14 7 17 -3 3
-9 2 -12 -2z"/>
<path d="M6735 5820 c3 -5 8 -10 11 -10 2 0 4 5 4 10 0 6 -5 10 -11 10 -5 0
-7 -4 -4 -10z"/>
<path d="M6746 5718 c3 -5 10 -6 15 -3 13 9 11 12 -6 12 -8 0 -12 -4 -9 -9z"/>
<path d="M6750 5680 c6 -11 13 -20 16 -20 2 0 0 9 -6 20 -6 11 -13 20 -16 20
-2 0 0 -9 6 -20z"/>
<path d="M3813 5595 c0 -8 4 -12 9 -9 5 3 6 10 3 15 -9 13 -12 11 -12 -6z"/>
<path d="M2386 5583 c-6 -14 -5 -15 5 -6 7 7 10 15 7 18 -3 3 -9 -2 -12 -12z"/>
<path d="M2346 5582 c-3 -5 1 -9 9 -9 8 0 12 4 9 9 -3 4 -7 8 -9 8 -2 0 -6 -4
-9 -8z"/>
<path d="M2494 5579 c-11 -19 10 -28 30 -13 11 8 15 14 10 14 -6 0 -16 -6 -23
-12 -11 -11 -13 -10 -8 5 7 19 2 23 -9 6z"/>
<path d="M5429 5585 c-1 -3 -2 -8 -3 -12 -1 -5 -5 -15 -10 -23 -6 -9 -1 -8 12
4 12 10 19 23 16 27 -6 10 -13 12 -15 4z"/>
<path d="M5516 5567 c3 -10 9 -15 12 -12 3 3 0 11 -7 18 -10 9 -11 8 -5 -6z"/>
<path d="M2576 5562 c-2 -4 -1 -14 4 -22 7 -11 9 -9 7 8 -1 24 -3 26 -11 14z"/>
<path d="M5480 5566 c0 -2 8 -10 18 -17 15 -13 16 -12 3 4 -13 16 -21 21 -21
13z"/>
<path d="M5666 5561 c8 -8 43 -8 38 0 -2 4 -13 7 -24 6 -10 -1 -17 -3 -14 -6z"/>
<path d="M5367 5539 c7 -7 15 -10 18 -7 3 3 -2 9 -12 12 -14 6 -15 5 -6 -5z"/>
<path d="M2706 5518 c3 -4 9 -8 15 -8 5 0 9 4 9 8 0 5 -7 9 -15 9 -8 0 -12 -4
-9 -9z"/>
<path d="M2760 5511 c0 -6 4 -13 10 -16 6 -3 7 1 4 9 -7 18 -14 21 -14 7z"/>
<path d="M2171 5493 c7 -10 15 -20 16 -22 2 -2 3 3 3 11 0 9 -7 19 -16 22 -15
6 -15 4 -3 -11z"/>
<path d="M2670 5506 c0 -2 7 -7 16 -10 8 -3 12 -2 9 4 -6 10 -25 14 -25 6z"/>
<path d="M6766 5478 c3 -5 10 -6 15 -3 13 9 11 12 -6 12 -8 0 -12 -4 -9 -9z"/>
<path d="M2895 5460 c-3 -5 -1 -10 4 -10 6 0 11 5 11 10 0 6 -2 10 -4 10 -3 0
-8 -4 -11 -10z"/>
<path d="M5170 5461 c0 -6 4 -13 10 -16 6 -3 7 1 4 9 -7 18 -14 21 -14 7z"/>
<path d="M2941 5444 c0 -11 3 -14 6 -6 3 7 2 16 -1 19 -3 4 -6 -2 -5 -13z"/>
<path d="M5020 5442 c0 -5 7 -9 15 -9 8 0 12 4 9 9 -3 4 -9 8 -15 8 -5 0 -9
-4 -9 -8z"/>
<path d="M3000 5431 c0 -6 4 -13 10 -16 6 -3 7 1 4 9 -7 18 -14 21 -14 7z"/>
<path d="M2154 5419 c-3 -6 -1 -16 6 -22 10 -9 11 -9 5 2 -4 8 -2 17 6 22 9 6
10 9 2 9 -6 0 -15 -5 -19 -11z"/>
<path d="M3035 5420 c-3 -5 -1 -10 4 -10 6 0 11 5 11 10 0 6 -2 10 -4 10 -3 0
-8 -4 -11 -10z"/>
<path d="M3075 5391 c-3 -5 -2 -12 3 -15 5 -3 9 1 9 9 0 17 -3 19 -12 6z"/>
<path d="M6755 5380 c-3 -5 -1 -10 4 -10 6 0 11 5 11 10 0 6 -2 10 -4 10 -3 0
-8 -4 -11 -10z"/>
<path d="M3151 5364 c0 -11 3 -14 6 -6 3 7 2 16 -1 19 -3 4 -6 -2 -5 -13z"/>
<path d="M4730 5362 c0 -15 28 -23 36 -9 4 7 4 9 -1 5 -4 -4 -14 -3 -22 3 -8
7 -13 8 -13 1z"/>
<path d="M4786 5362 c-2 -4 4 -8 14 -8 10 0 16 4 14 8 -3 4 -9 8 -14 8 -5 0
-11 -4 -14 -8z"/>
<path d="M3246 5347 c3 -8 11 -14 19 -14 20 0 19 4 -5 17 -15 8 -18 8 -14 -3z"/>
<path d="M2110 5336 c0 -2 7 -7 16 -10 8 -3 12 -2 9 4 -6 10 -25 14 -25 6z"/>
<path d="M3294 5329 c-3 -6 -2 -15 3 -20 5 -5 9 -1 9 11 0 23 -2 24 -12 9z"/>
<path d="M4597 5317 c4 -6 0 -8 -9 -5 -8 4 -21 2 -29 -3 -12 -7 -11 -11 5 -26
16 -14 17 -14 7 -1 -8 11 -9 18 -1 23 5 3 10 2 10 -3 0 -5 7 -9 15 -9 8 0 12
4 9 9 -3 4 0 8 5 8 6 0 11 4 11 8 0 5 -7 9 -15 9 -8 0 -11 -5 -8 -10z"/>
<path d="M4695 5320 c3 -5 8 -10 11 -10 2 0 4 5 4 10 0 6 -5 10 -11 10 -5 0
-7 -4 -4 -10z"/>
<path d="M6750 5316 c0 -8 7 -17 16 -20 13 -5 14 -4 6 7 -7 8 -9 17 -5 20 3 4
1 7 -5 7 -7 0 -12 -6 -12 -14z"/>
<path d="M3795 5291 c-3 -5 -2 -12 3 -15 5 -3 9 1 9 9 0 17 -3 19 -12 6z"/>
<path d="M4636 5278 c3 -5 10 -6 15 -3 13 9 11 12 -6 12 -8 0 -12 -4 -9 -9z"/>
<path d="M3436 5258 c3 -5 10 -6 15 -3 13 9 11 12 -6 12 -8 0 -12 -4 -9 -9z"/>
<path d="M4393 5257 c-13 -5 -23 -17 -23 -25 0 -12 3 -12 14 4 8 10 18 16 22
12 4 -4 14 -2 22 5 13 10 15 9 9 -5 -3 -10 -2 -20 2 -22 5 -3 8 4 7 16 -1 24
-21 30 -53 15z"/>
<path d="M2116 5238 c3 -5 10 -6 15 -3 13 9 11 12 -6 12 -8 0 -12 -4 -9 -9z"/>
<path d="M3515 5240 c3 -5 8 -10 11 -10 2 0 4 5 4 10 0 6 -5 10 -11 10 -5 0
-7 -4 -4 -10z"/>
<path d="M6756 5233 c-6 -14 -5 -15 5 -6 7 7 10 15 7 18 -3 3 -9 -2 -12 -12z"/>
<path d="M4473 5225 c0 -8 4 -12 9 -9 5 3 6 10 3 15 -9 13 -12 11 -12 -6z"/>
<path d="M4300 5220 c0 -5 9 -8 20 -7 21 1 18 10 -5 13 -8 1 -15 -2 -15 -6z"/>
<path d="M6758 5163 c7 -3 16 -2 19 1 4 3 -2 6 -13 5 -11 0 -14 -3 -6 -6z"/>
<path d="M2136 5133 c-6 -14 -5 -15 5 -6 7 7 10 15 7 18 -3 3 -9 -2 -12 -12z"/>
<path d="M6774 5143 c4 -7 2 -13 -3 -13 -6 0 -11 -4 -11 -8 0 -5 6 -9 14 -9
15 0 16 21 1 34 -4 4 -5 2 -1 -4z"/>
<path d="M2136 5082 c-2 -4 -1 -14 4 -22 7 -11 9 -9 7 8 -1 24 -3 26 -11 14z"/>
<path d="M6786 5078 c3 -5 10 -6 15 -3 13 9 11 12 -6 12 -8 0 -12 -4 -9 -9z"/>
<path d="M6775 5039 c-4 -6 -5 -12 -2 -15 2 -3 7 2 10 11 7 17 1 20 -8 4z"/>
<path d="M2113 5026 c0 -8 7 -12 15 -8 10 3 13 1 8 -6 -3 -6 -2 -13 3 -16 5
-4 8 1 7 10 -3 21 -33 39 -33 20z"/>
<path d="M2114 4946 c0 -13 4 -22 8 -20 9 6 6 44 -3 44 -4 0 -6 -11 -5 -24z"/>
<path d="M6744 4935 c4 -11 1 -22 -6 -26 -9 -6 -6 -8 8 -7 23 2 27 39 4 46 -9
3 -11 -1 -6 -13z"/>
<path d="M2139 4923 c-1 -5 -1 -12 0 -17 1 -5 -5 -6 -14 -2 -10 3 -14 2 -10
-5 9 -14 28 -6 31 14 1 9 0 17 -2 17 -2 0 -5 -3 -5 -7z"/>
<path d="M6736 4878 c3 -4 11 -5 19 -1 21 7 19 12 -4 10 -11 0 -18 -5 -15 -9z"/>
<path d="M2112 4855 c-1 -13 2 -26 7 -30 5 -3 7 4 4 15 -3 12 0 20 6 20 7 0
10 -4 6 -9 -3 -5 -1 -12 4 -15 5 -4 8 1 7 10 -1 9 -9 20 -17 24 -11 7 -15 3
-17 -15z"/>
<path d="M2115 4800 c3 -5 11 -10 16 -10 6 0 7 5 4 10 -3 6 -11 10 -16 10 -6
0 -7 -4 -4 -10z"/>
<path d="M6735 4780 c-4 -7 -2 -17 4 -23 9 -9 11 -7 6 8 -7 20 -6 20 9 1 9
-11 16 -15 16 -9 0 18 -27 36 -35 23z"/>
<path d="M2118 4753 c7 -3 16 -2 19 1 4 3 -2 6 -13 5 -11 0 -14 -3 -6 -6z"/>
<path d="M2125 4730 c-3 -6 1 -7 9 -4 18 7 21 14 7 14 -6 0 -13 -4 -16 -10z"/>
<path d="M6715 4720 c3 -5 8 -10 11 -10 2 0 4 5 4 10 0 6 -5 10 -11 10 -5 0
-7 -4 -4 -10z"/>
<path d="M6736 4673 c-6 -14 -5 -15 5 -6 7 7 10 15 7 18 -3 3 -9 -2 -12 -12z"/>
<path d="M2153 4585 c0 -8 4 -15 9 -15 4 0 8 4 8 9 0 6 -4 12 -8 15 -5 3 -9
-1 -9 -9z"/>
<path d="M6657 4518 c-14 -12 -14 -15 -2 -32 8 -11 15 -15 15 -10 0 6 -6 16
-12 23 -11 11 -10 13 5 8 12 -5 16 -3 11 5 -5 8 -2 9 9 5 10 -3 17 -2 17 3 0
14 -23 12 -43 -2z"/>
<path d="M6630 4391 c0 -7 -5 -9 -12 -5 -7 5 -8 3 -3 -5 5 -9 10 -10 18 -2 6
6 8 14 4 18 -4 3 -7 1 -7 -6z"/>
<path d="M6563 4333 c-7 -2 -9 -11 -6 -20 5 -12 3 -14 -7 -8 -8 5 -11 4 -6 -3
3 -5 3 -12 -1 -14 -5 -2 -19 -17 -33 -33 -24 -29 -24 -29 -1 -10 13 11 33 19
45 18 15 -1 16 0 3 3 -9 3 -15 10 -11 15 3 5 10 7 15 3 5 -3 9 -2 8 3 -1 4 -1
17 0 28 1 15 3 17 10 6 5 -8 11 -9 15 -3 7 11 -13 21 -31 15z"/>
<path d="M6535 4240 c3 -5 8 -10 11 -10 2 0 4 5 4 10 0 6 -5 10 -11 10 -5 0
-7 -4 -4 -10z"/>
<path d="M6510 4221 c0 -6 4 -12 8 -15 5 -3 9 1 9 9 0 8 -4 15 -9 15 -4 0 -8
-4 -8 -9z"/>
<path d="M6422 4146 c-21 -30 -27 -48 -20 -52 6 -4 9 -3 6 2 -3 5 0 15 8 22
14 12 19 8 14 -13 -1 -5 2 -6 6 -2 11 11 14 38 3 31 -5 -3 -9 0 -9 5 0 6 5 11
11 11 5 0 8 4 5 9 -4 5 0 11 6 14 7 2 10 7 7 11 -4 4 -21 -13 -37 -38z"/>
<path d="M6307 4039 l-38 -39 22 -22 c21 -23 21 -23 10 -1 -17 33 -13 38 12
17 22 -19 22 -19 5 2 -21 24 -24 41 -5 27 6 -5 18 -8 25 -7 6 1 17 2 23 3 8 1
8 6 -1 16 -7 9 -10 19 -6 22 4 4 11 1 16 -7 6 -10 10 -11 10 -3 0 7 -8 17 -18
22 -14 7 -25 1 -55 -30z m43 -9 c0 -4 -8 -7 -17 -5 -10 2 -20 4 -23 4 -3 1 2
5 10 10 15 10 30 6 30 -9z"/>
<path d="M2361 3604 c0 -11 3 -14 6 -6 3 7 2 16 -1 19 -3 4 -6 -2 -5 -13z"/>
<path d="M5514 3595 c-12 -8 -23 -13 -25 -12 -3 1 0 -2 5 -8 5 -7 10 -6 13 3
3 6 8 10 13 7 4 -3 10 2 14 10 7 19 6 19 -20 0z"/>
<path d="M5546 3593 c-6 -14 -5 -15 5 -6 7 7 10 15 7 18 -3 3 -9 -2 -12 -12z"/>
<path d="M5635 3601 c-3 -5 -2 -12 3 -15 5 -3 9 1 9 9 0 17 -3 19 -12 6z"/>
<path d="M2260 3586 c0 -2 8 -10 18 -17 15 -13 16 -12 3 4 -13 16 -21 21 -21
13z"/>
<path d="M2239 3553 c-7 -10 -9 -15 -5 -11 5 4 15 3 22 -3 7 -6 14 -6 18 -1 3
6 0 15 -8 21 -10 9 -17 7 -27 -6z"/>
<path d="M2496 3562 c-2 -4 -1 -14 4 -22 7 -11 9 -9 7 8 -1 24 -3 26 -11 14z"/>
<path d="M2295 3549 c-4 -6 -5 -12 -2 -15 2 -3 7 2 10 11 7 17 1 20 -8 4z"/>
<path d="M2520 3551 c0 -6 4 -13 10 -16 6 -3 7 1 4 9 -7 18 -14 21 -14 7z"/>
<path d="M5490 3551 c0 -6 4 -13 10 -16 6 -3 7 1 4 9 -7 18 -14 21 -14 7z"/>
<path d="M5435 3539 c-4 -6 -5 -12 -2 -15 2 -3 7 2 10 11 7 17 1 20 -8 4z"/>
<path d="M2573 3525 c0 -8 4 -12 9 -9 5 3 6 10 3 15 -9 13 -12 11 -12 -6z"/>
<path d="M5354 3526 c-13 -10 -14 -15 -4 -21 9 -5 11 -4 6 3 -4 7 -3 12 3 12
5 0 12 -6 14 -12 4 -10 6 -9 6 1 1 11 4 11 16 1 13 -11 14 -10 9 3 -8 22 -29
28 -50 13z"/>
<path d="M2202 3504 c-14 -14 -19 -25 -13 -29 6 -3 11 -11 11 -16 0 -6 -4 -8
-9 -4 -11 6 -36 -33 -27 -43 3 -3 -1 -14 -11 -24 -9 -10 -13 -18 -8 -18 4 0 3
-6 -3 -13 -8 -10 -6 -13 11 -14 15 -2 18 0 8 6 -11 7 -11 9 0 14 11 4 11 6 1
6 -7 1 -10 6 -7 11 5 7 11 8 19 1 8 -6 17 -6 26 0 12 8 11 9 -4 7 -12 -2 -20
4 -22 16 -3 23 11 52 23 48 4 -1 9 7 9 18 1 11 7 27 14 35 20 24 8 23 -18 -1z"/>
<path d="M5285 3511 c-3 -5 -2 -12 3 -15 5 -3 9 1 9 9 0 17 -3 19 -12 6z"/>
<path d="M5313 3509 c3 -9 0 -23 -6 -30 -7 -8 -3 -6 8 3 16 15 17 20 6 30 -11
11 -13 10 -8 -3z"/>
<path d="M2227 3486 c-4 -10 -1 -13 8 -9 8 3 12 9 9 14 -7 12 -11 11 -17 -5z"/>
<path d="M5236 3475 c4 -8 8 -15 10 -15 2 0 4 7 4 15 0 8 -4 15 -10 15 -5 0
-7 -7 -4 -15z"/>
<path d="M5260 3479 c0 -5 5 -7 10 -4 6 3 10 8 10 11 0 2 -4 4 -10 4 -5 0 -10
-5 -10 -11z"/>
<path d="M2755 3469 c-4 -6 -5 -12 -2 -15 2 -3 7 2 10 11 7 17 1 20 -8 4z"/>
<path d="M2215 3440 c-3 -5 -1 -10 4 -10 6 0 11 5 11 10 0 6 -2 10 -4 10 -3 0
-8 -4 -11 -10z"/>
<path d="M5085 3440 c-3 -5 -1 -10 4 -10 6 0 11 5 11 10 0 6 -2 10 -4 10 -3 0
-8 -4 -11 -10z"/>
<path d="M5110 3440 c0 -5 5 -10 10 -10 6 0 10 5 10 10 0 6 -4 10 -10 10 -5 0
-10 -4 -10 -10z"/>
<path d="M5055 3431 c-6 -11 13 -26 22 -17 4 3 1 6 -6 6 -7 0 -9 5 -6 10 3 6
4 10 1 10 -3 0 -7 -4 -11 -9z"/>
<path d="M2190 3421 c0 -6 4 -13 10 -16 6 -3 7 1 4 9 -7 18 -14 21 -14 7z"/>
<path d="M2836 3418 c3 -5 10 -6 15 -3 13 9 11 12 -6 12 -8 0 -12 -4 -9 -9z"/>
<path d="M2873 3415 c0 -8 4 -12 9 -9 5 3 6 10 3 15 -9 13 -12 11 -12 -6z"/>
<path d="M2915 3411 c-3 -5 -2 -12 3 -15 5 -3 9 1 9 9 0 17 -3 19 -12 6z"/>
<path d="M5030 3410 c0 -5 5 -10 11 -10 5 0 7 5 4 10 -3 6 -8 10 -11 10 -2 0
-4 -4 -4 -10z"/>
<path d="M4990 3398 c0 -4 4 -8 9 -8 6 0 12 4 15 8 3 5 -1 9 -9 9 -8 0 -15 -4
-15 -9z"/>
<path d="M4925 3390 c-4 -6 -10 -8 -15 -5 -4 3 -11 -2 -14 -10 -4 -12 -2 -13
13 -6 10 6 20 8 23 6 3 -3 5 2 5 10 0 18 -3 19 -12 5z"/>
<path d="M4950 3389 c0 -5 4 -8 9 -4 5 3 12 1 16 -5 3 -5 -1 -10 -9 -10 -9 0
-16 -5 -16 -10 0 -7 7 -7 21 0 16 9 18 14 8 26 -14 17 -29 18 -29 3z"/>
<path d="M5015 3380 c-3 -5 -1 -10 4 -10 6 0 11 5 11 10 0 6 -2 10 -4 10 -3 0
-8 -4 -11 -10z"/>
<path d="M4865 3370 c-4 -6 -11 -7 -17 -4 -7 5 -8 2 -3 -6 6 -10 3 -12 -11 -8
-14 4 -20 0 -20 -13 0 -15 3 -15 20 -3 11 7 29 12 40 10 12 -2 15 -1 8 1 -8 3
-11 11 -8 19 6 16 0 19 -9 4z"/>
<path d="M3090 3350 c6 -11 13 -20 16 -20 2 0 0 9 -6 20 -6 11 -13 20 -16 20
-2 0 0 -9 6 -20z"/>
<path d="M6681 3354 c0 -11 3 -14 6 -6 3 7 2 16 -1 19 -3 4 -6 -2 -5 -13z"/>
<path d="M2130 3320 c0 -5 9 -14 20 -20 16 -8 20 -8 18 2 -2 7 3 12 10 10 8
-1 11 2 7 9 -5 8 -10 8 -18 0 -14 -14 -30 -14 -22 -1 3 6 1 10 -4 10 -6 0 -11
-4 -11 -10z"/>
<path d="M3190 3320 c0 -5 5 -10 10 -10 6 0 10 5 10 10 0 6 -4 10 -10 10 -5 0
-10 -4 -10 -10z"/>
<path d="M4835 3319 c-3 -4 2 -6 10 -5 21 3 28 13 10 13 -9 0 -18 -4 -20 -8z"/>
<path d="M6693 3312 c0 -11 5 -18 11 -15 5 4 7 -1 3 -10 -4 -11 -2 -14 9 -10
13 5 12 8 -3 27 -10 11 -19 23 -20 25 -1 2 -1 -6 0 -17z"/>
<path d="M3255 3300 c-3 -5 -1 -10 4 -10 6 0 11 5 11 10 0 6 -2 10 -4 10 -3 0
-8 -4 -11 -10z"/>
<path d="M4796 3302 c-3 -5 1 -9 9 -9 8 0 12 4 9 9 -3 4 -7 8 -9 8 -2 0 -6 -4
-9 -8z"/>
<path d="M2133 3283 c4 -3 2 -12 -4 -20 -9 -9 -8 -13 0 -13 6 0 11 2 11 4 0 2
3 11 6 20 4 10 1 16 -7 16 -7 0 -9 -3 -6 -7z"/>
<path d="M4537 3263 c-4 -3 -7 -11 -7 -17 0 -6 5 -5 12 2 6 6 9 14 7 17 -3 3
-9 2 -12 -2z"/>
<path d="M4640 3260 c-9 -6 -10 -10 -3 -10 6 0 15 5 18 10 8 12 4 12 -15 0z"/>
<path d="M4673 3245 c0 -8 4 -12 9 -9 5 3 6 10 3 15 -9 13 -12 11 -12 -6z"/>
<path d="M3415 3241 c-3 -5 -2 -12 3 -15 5 -3 9 1 9 9 0 17 -3 19 -12 6z"/>
<path d="M4507 3231 c-4 -17 -3 -21 5 -13 5 5 8 16 6 23 -3 8 -7 3 -11 -10z"/>
<path d="M4557 3243 c-10 -10 -8 -23 4 -23 5 0 8 4 5 9 -4 5 0 12 6 14 7 3 8
6 2 6 -6 1 -14 -2 -17 -6z"/>
<path d="M3450 3231 c0 -6 4 -13 10 -16 6 -3 7 1 4 9 -7 18 -14 21 -14 7z"/>
<path d="M4470 3220 c0 -5 5 -10 11 -10 5 0 7 5 4 10 -3 6 -8 10 -11 10 -2 0
-4 -4 -4 -10z"/>
<path d="M6715 3220 c-3 -6 1 -7 9 -4 18 7 21 14 7 14 -6 0 -13 -4 -16 -10z"/>
<path d="M2133 3205 c-3 -9 -3 -18 -1 -21 3 -3 8 4 11 16 6 23 -1 27 -10 5z"/>
<path d="M4385 3210 c-4 -6 -11 -7 -17 -4 -7 5 -8 2 -3 -6 6 -10 4 -12 -8 -7
-25 9 -21 0 6 -14 12 -6 19 -8 15 -4 -9 10 10 35 25 35 7 0 7 -4 -1 -12 -7 -7
-12 -16 -12 -22 0 -5 6 -1 14 9 14 20 12 35 -4 35 -5 0 -12 -5 -15 -10z"/>
<path d="M3593 3185 c0 -7 6 -11 14 -8 7 3 13 6 13 8 0 2 -6 5 -13 8 -8 3 -14
-1 -14 -8z"/>
<path d="M4415 3180 c-3 -5 -1 -10 4 -10 6 0 11 5 11 10 0 6 -2 10 -4 10 -3 0
-8 -4 -11 -10z"/>
<path d="M6725 3180 c-3 -5 -2 -10 4 -10 5 0 13 5 16 10 3 6 2 10 -4 10 -5 0
-13 -4 -16 -10z"/>
<path d="M2114 3159 c0 -10 4 -19 8 -19 4 0 8 6 8 14 0 8 -4 17 -8 20 -4 2 -8
-4 -8 -15z"/>
<path d="M4265 3169 c-4 -5 -3 -9 2 -9 4 0 1 -5 -7 -10 -12 -7 -10 -9 7 -7 12
0 21 6 20 12 -1 5 7 8 18 7 27 -5 14 7 -13 13 -12 2 -24 0 -27 -6z"/>
<path d="M4193 3145 c-18 -8 -33 -20 -33 -27 0 -10 2 -10 9 1 5 8 14 10 21 6
9 -6 11 -4 5 5 -5 8 -3 11 6 8 8 -3 13 -11 12 -17 -2 -6 2 -11 8 -11 6 0 8 9
4 21 -5 16 -4 19 5 14 9 -5 11 -4 6 3 -4 7 -8 12 -9 12 -1 -1 -17 -7 -34 -15z"/>
<path d="M6744 3130 c0 -13 4 -16 10 -10 7 7 7 13 0 20 -6 6 -10 3 -10 -10z"/>
<path d="M2155 3129 c-4 -6 -5 -12 -2 -15 2 -3 7 2 10 11 7 17 1 20 -8 4z"/>
<path d="M2125 3113 c-14 -31 -13 -41 1 -47 11 -4 12 -1 5 13 -7 12 -6 22 1
29 7 7 9 14 6 17 -3 3 -9 -2 -13 -12z"/>
<path d="M3765 3120 c3 -5 8 -10 11 -10 2 0 4 5 4 10 0 6 -5 10 -11 10 -5 0
-7 -4 -4 -10z"/>
<path d="M3830 3111 c0 -7 -5 -9 -12 -5 -7 5 -8 3 -3 -5 5 -9 10 -10 18 -2 6
6 8 14 4 18 -4 3 -7 1 -7 -6z"/>
<path d="M4175 3100 c-3 -5 -1 -10 4 -10 6 0 11 5 11 10 0 6 -2 10 -4 10 -3 0
-8 -4 -11 -10z"/>
<path d="M3857 3093 c-10 -9 -9 -23 1 -23 5 0 9 7 9 15 0 17 -1 18 -10 8z"/>
<path d="M4140 3086 c0 -2 8 -10 18 -17 15 -13 16 -12 3 4 -13 16 -21 21 -21
13z"/>
<path d="M3935 3069 c-4 -6 -4 -13 -1 -16 3 -4 6 -1 6 6 0 7 5 9 12 5 7 -4 8
-3 4 4 -9 15 -13 15 -21 1z"/>
<path d="M4058 3058 c-9 -5 -6 -7 9 -5 12 2 25 6 28 8 8 9 -23 6 -37 -3z"/>
<path d="M2110 3038 c0 -4 4 -8 9 -8 6 0 12 4 15 8 3 5 -1 9 -9 9 -8 0 -15 -4
-15 -9z"/>
<path d="M2114 3009 c-4 -7 -3 -9 4 -5 5 3 12 0 15 -6 2 -7 7 -10 11 -7 4 3 0
12 -8 18 -11 9 -16 9 -22 0z"/>
<path d="M6745 3011 c-10 -17 17 -24 31 -7 8 9 9 11 2 6 -16 -13 -31 -13 -23
0 3 6 4 10 1 10 -3 0 -7 -4 -11 -9z"/>
<path d="M2115 2940 c-3 -6 1 -7 9 -4 18 7 21 14 7 14 -6 0 -13 -4 -16 -10z"/>
<path d="M2116 2894 c3 -35 12 -41 12 -9 0 14 -4 27 -8 30 -4 2 -6 -7 -4 -21z"/>
<path d="M2116 2838 c3 -5 10 -6 15 -3 13 9 11 12 -6 12 -8 0 -12 -4 -9 -9z"/>
<path d="M2135 2821 c-3 -5 -2 -12 3 -15 5 -3 9 1 9 9 0 17 -3 19 -12 6z"/>
<path d="M6760 2815 c-7 -9 -11 -17 -9 -20 3 -2 10 5 17 15 14 24 10 26 -8 5z"/>
<path d="M2116 2797 c3 -10 9 -15 12 -12 3 3 0 11 -7 18 -10 9 -11 8 -5 -6z"/>
<path d="M2130 2760 c0 -5 5 -10 11 -10 5 0 7 5 4 10 -3 6 -8 10 -11 10 -2 0
-4 -4 -4 -10z"/>
<path d="M6760 2734 c-11 -12 -10 -18 5 -32 18 -16 18 -16 6 1 -11 14 -11 20
-1 32 7 8 10 15 7 15 -2 0 -10 -7 -17 -16z"/>
<path d="M2115 2731 c-3 -5 -2 -12 3 -15 5 -3 9 1 9 9 0 17 -3 19 -12 6z"/>
<path d="M6760 2654 c-11 -12 -10 -18 5 -32 18 -16 18 -16 6 1 -11 14 -11 20
-1 32 7 8 10 15 7 15 -2 0 -10 -7 -17 -16z"/>
<path d="M2115 2651 c-3 -5 -2 -12 3 -15 5 -3 9 1 9 9 0 17 -3 19 -12 6z"/>
<path d="M2126 2605 c-9 -26 -7 -32 5 -12 6 10 9 21 6 23 -2 3 -7 -2 -11 -11z"/>
<path d="M6759 2573 c-13 -16 -12 -17 4 -4 16 13 21 21 13 21 -2 0 -10 -8 -17
-17z"/>
<path d="M2130 2558 c0 -4 4 -8 9 -8 6 0 12 4 15 8 3 5 -1 9 -9 9 -8 0 -15 -4
-15 -9z"/>
<path d="M3813 2555 c0 -8 4 -12 9 -9 5 3 6 10 3 15 -9 13 -12 11 -12 -6z"/>
<path d="M6750 2541 c0 -6 4 -12 8 -15 5 -3 9 1 9 9 0 8 -4 15 -9 15 -4 0 -8
-4 -8 -9z"/>
<path d="M6757 2453 c-10 -9 -9 -23 1 -23 5 0 9 7 9 15 0 17 -1 18 -10 8z"/>
<path d="M6750 2380 c-13 -8 -12 -10 3 -10 9 0 17 5 17 10 0 12 -1 12 -20 0z"/>
<path d="M6740 2357 c0 -2 6 -10 14 -16 11 -9 16 -9 22 1 4 7 4 10 -1 6 -4 -4
-14 -3 -22 3 -7 6 -13 9 -13 6z"/>
<path d="M3813 2315 c0 -8 4 -12 9 -9 5 3 6 10 3 15 -9 13 -12 11 -12 -6z"/>
<path d="M6740 2326 c0 -2 8 -10 18 -17 15 -13 16 -12 3 4 -13 16 -21 21 -21
13z"/>
<path d="M3810 2281 c0 -6 4 -13 10 -16 6 -3 7 1 4 9 -7 18 -14 21 -14 7z"/>
<path d="M3813 2195 c0 -8 4 -12 9 -9 5 3 6 10 3 15 -9 13 -12 11 -12 -6z"/>
<path d="M6733 2190 c-1 -11 2 -18 8 -15 11 7 12 35 1 35 -4 0 -8 -9 -9 -20z"/>
<path d="M6750 2156 c0 -8 4 -17 9 -20 5 -4 7 3 4 14 -6 23 -13 26 -13 6z"/>
<path d="M6725 2120 c-3 -6 1 -7 9 -4 18 7 21 14 7 14 -6 0 -13 -4 -16 -10z"/>
<path d="M3684 2096 c-3 -8 -12 -12 -20 -9 -8 3 -14 1 -14 -4 0 -5 15 -9 33
-9 21 1 31 -3 29 -12 -1 -8 2 -11 8 -7 8 5 8 11 -1 21 -6 7 -16 11 -22 7 -6
-4 -8 0 -4 10 3 10 4 17 1 17 -2 0 -7 -6 -10 -14z"/>
<path d="M4255 2091 c-3 -5 -2 -12 3 -15 5 -3 9 1 9 9 0 17 -3 19 -12 6z"/>
<path d="M3626 2073 c-6 -14 -9 -15 -15 -4 -6 9 -11 10 -15 2 -4 -6 -12 -9
-17 -6 -15 10 -10 -2 8 -16 14 -12 16 -12 8 0 -6 11 -4 13 8 8 15 -6 45 18 35
29 -3 3 -9 -3 -12 -13z"/>
<path d="M3547 2056 c-4 -10 -3 -15 3 -11 6 3 10 1 10 -6 0 -7 3 -10 6 -6 3 3
2 13 -4 22 -8 16 -9 16 -15 1z"/>
<path d="M4386 2043 c-6 -14 -5 -15 5 -6 7 7 10 15 7 18 -3 3 -9 -2 -12 -12z"/>
<path d="M3507 2033 c5 -12 3 -14 -7 -8 -8 5 -11 4 -6 -3 7 -12 36 -5 36 8 0
4 -7 10 -14 13 -11 4 -13 1 -9 -10z"/>
<path d="M4330 2046 c0 -2 7 -7 16 -10 8 -3 12 -2 9 4 -6 10 -25 14 -25 6z"/>
<path d="M3467 2033 c-11 -11 -8 -21 9 -27 13 -5 14 -4 6 7 -7 8 -9 17 -5 20
3 4 4 7 1 7 -2 0 -8 -3 -11 -7z"/>
<path d="M3413 2005 c0 -8 5 -11 10 -8 6 4 8 0 4 -9 -4 -12 -1 -14 16 -10 12
3 16 7 9 10 -7 2 -9 9 -5 15 3 7 3 9 -2 5 -4 -4 -13 -3 -20 2 -8 7 -12 5 -12
-5z"/>
<path d="M3387 2004 c-8 -8 3 -34 15 -34 7 0 6 5 -1 13 -6 8 -8 17 -4 20 3 4
4 7 1 7 -2 0 -7 -3 -11 -6z"/>
<path d="M4478 2003 c7 -3 16 -2 19 1 4 3 -2 6 -13 5 -11 0 -14 -3 -6 -6z"/>
<path d="M4535 2001 c-3 -5 -2 -12 3 -15 5 -3 9 1 9 9 0 17 -3 19 -12 6z"/>
<path d="M6690 2001 c0 -17 21 -24 33 -12 9 9 7 10 -7 5 -13 -5 -17 -4 -12 4
4 7 2 12 -3 12 -6 0 -11 -4 -11 -9z"/>
<path d="M3365 1976 c10 -14 19 -26 22 -26 7 0 -17 39 -28 46 -6 3 -3 -5 6
-20z"/>
<path d="M3266 1958 c5 -8 2 -9 -11 -4 -15 5 -16 4 -5 -9 7 -9 16 -12 19 -8 3
4 10 11 14 14 5 3 1 9 -8 12 -11 5 -14 3 -9 -5z"/>
<path d="M4661 1954 c0 -11 3 -14 6 -6 3 7 2 16 -1 19 -3 4 -6 -2 -5 -13z"/>
<path d="M6690 1954 c0 -9 -5 -12 -12 -8 -7 4 -8 3 -4 -4 10 -16 14 -15 26 8
7 14 7 20 0 20 -5 0 -10 -7 -10 -16z"/>
<path d="M3310 1950 c-9 -6 -10 -10 -3 -10 6 0 15 5 18 10 8 12 4 12 -15 0z"/>
<path d="M4695 1940 c-3 -5 -1 -10 4 -10 6 0 11 5 11 10 0 6 -2 10 -4 10 -3 0
-8 -4 -11 -10z"/>
<path d="M4733 1935 c0 -8 4 -12 9 -9 5 3 6 10 3 15 -9 13 -12 11 -12 -6z"/>
<path d="M4765 1920 c3 -5 8 -10 11 -10 2 0 4 5 4 10 0 6 -5 10 -11 10 -5 0
-7 -4 -4 -10z"/>
<path d="M6700 1926 c0 -2 7 -7 16 -10 8 -3 12 -2 9 4 -6 10 -25 14 -25 6z"/>
<path d="M3188 1903 c7 -3 16 -2 19 1 4 3 -2 6 -13 5 -11 0 -14 -3 -6 -6z"/>
<path d="M4810 1900 c0 -5 5 -10 11 -10 5 0 7 5 4 10 -3 6 -8 10 -11 10 -2 0
-4 -4 -4 -10z"/>
<path d="M3035 1890 c-3 -5 -1 -10 4 -10 6 0 11 5 11 10 0 6 -2 10 -4 10 -3 0
-8 -4 -11 -10z"/>
<path d="M2966 1853 c-6 -14 -5 -15 5 -6 7 7 10 15 7 18 -3 3 -9 -2 -12 -12z"/>
<path d="M4916 1858 c3 -5 10 -6 15 -3 13 9 11 12 -6 12 -8 0 -12 -4 -9 -9z"/>
<path d="M2880 1835 c-7 -9 -10 -18 -6 -22 3 -3 6 -1 6 5 0 6 6 10 13 8 6 -1
9 -1 4 1 -4 3 -5 9 -1 14 9 15 -2 10 -16 -6z"/>
<path d="M6631 1813 c-1 -17 16 -25 25 -12 4 7 3 9 -4 5 -5 -3 -13 0 -15 6 -4
9 -6 10 -6 1z"/>
<path d="M2760 1801 c0 -6 4 -13 10 -16 6 -3 7 1 4 9 -7 18 -14 21 -14 7z"/>
<path d="M5130 1799 c0 -5 5 -7 10 -4 6 3 10 8 10 11 0 2 -4 4 -10 4 -5 0 -10
-5 -10 -11z"/>
<path d="M2730 1785 c0 -2 10 -10 23 -16 20 -11 21 -11 8 4 -13 16 -31 23 -31
12z"/>
<path d="M6588 1779 c6 -9 9 -19 5 -22 -3 -4 -2 -7 4 -7 6 0 14 7 17 16 3 8
11 12 17 8 8 -4 9 -3 5 5 -6 8 -12 9 -20 2 -9 -7 -17 -7 -26 2 -12 10 -12 9
-2 -4z"/>
<path d="M2674 1769 c-4 -7 -3 -9 4 -5 6 3 13 -2 15 -11 4 -16 5 -16 6 -1 1
21 -15 32 -25 17z"/>
<path d="M5195 1761 c-3 -5 -2 -12 3 -15 5 -3 9 1 9 9 0 17 -3 19 -12 6z"/>
<path d="M5280 1760 c8 -5 20 -10 25 -10 6 0 3 5 -5 10 -8 5 -19 10 -25 10 -5
0 -3 -5 5 -10z"/>
<path d="M5329 1723 c-13 -16 -12 -17 4 -4 9 7 17 15 17 17 0 8 -8 3 -21 -13z"/>
<path d="M2610 1719 c0 -5 5 -7 10 -4 6 3 10 8 10 11 0 2 -4 4 -10 4 -5 0 -10
-5 -10 -11z"/>
<path d="M6530 1724 c0 -2 10 -8 21 -15 13 -6 19 -7 15 -1 -3 6 0 12 6 15 7 2
1 4 -14 4 -16 0 -28 -1 -28 -3z"/>
<path d="M2490 1700 c0 -5 5 -10 11 -10 5 0 7 5 4 10 -3 6 -8 10 -11 10 -2 0
-4 -4 -4 -10z"/>
<path d="M5410 1701 c0 -6 4 -13 10 -16 6 -3 7 1 4 9 -7 18 -14 21 -14 7z"/>
<path d="M6470 1685 c-13 -13 -31 -27 -42 -31 -22 -6 -24 -21 -3 -21 8 0 12 4
9 8 -2 4 4 10 15 14 11 3 22 13 25 22 5 13 9 13 24 2 15 -12 16 -12 5 2 -7 9
-10 19 -6 22 3 4 4 7 1 7 -2 0 -15 -11 -28 -25z"/>
<path d="M6510 1699 c0 -5 5 -7 12 -3 8 5 9 1 4 -12 -5 -14 -4 -16 5 -7 6 6 8
16 5 22 -9 14 -26 14 -26 0z"/>
<path d="M2401 1691 c-8 -5 -9 -11 -3 -15 5 -3 12 1 16 9 6 17 6 18 -13 6z"/>
<path d="M2440 1660 c-9 -6 -10 -10 -3 -10 6 0 15 5 18 10 8 12 4 12 -15 0z"/>
<path d="M2331 1644 c0 -11 3 -14 6 -6 3 7 2 16 -1 19 -3 4 -6 -2 -5 -13z"/>
<path d="M1524 1638 c-5 -7 -3 -8 6 -3 8 5 18 1 27 -10 7 -11 13 -14 13 -9 0
12 -21 34 -31 34 -4 0 -11 -5 -15 -12z"/>
<path d="M2211 1633 c0 -11 3 -13 6 -5 2 6 10 9 15 6 7 -4 8 -2 4 4 -11 18
-26 14 -25 -5z"/>
<path d="M2390 1639 c0 -5 5 -7 10 -4 6 3 10 8 10 11 0 2 -4 4 -10 4 -5 0 -10
-5 -10 -11z"/>
<path d="M6323 1622 c-18 -9 -33 -20 -33 -25 0 -6 3 -7 7 -4 3 4 13 1 22 -6
14 -11 14 -10 2 6 -11 14 -11 17 2 17 8 0 20 7 27 15 7 8 11 14 9 14 -2 -1
-19 -9 -36 -17z"/>
<path d="M5860 1619 c0 -5 9 -9 20 -9 11 0 20 2 20 4 0 2 -9 6 -20 9 -11 3
-20 1 -20 -4z"/>
<path d="M1651 1607 c-8 -10 -7 -14 2 -14 8 0 14 6 14 14 0 7 -1 13 -2 13 -2
0 -8 -6 -14 -13z"/>
<path d="M2000 1613 c0 -20 19 -25 36 -9 8 9 11 16 5 16 -5 0 -13 -5 -17 -11
-4 -8 -9 -7 -15 2 -6 10 -9 10 -9 2z"/>
<path d="M6349 1603 c-13 -16 -12 -17 4 -4 16 13 21 21 13 21 -2 0 -10 -8 -17
-17z"/>
<path d="M1786 1596 c6 -15 4 -17 -6 -11 -9 6 -11 4 -5 -4 5 -9 10 -10 18 -2
8 8 7 14 -2 24 -10 10 -11 8 -5 -7z"/>
<path d="M1890 1596 c7 -7 13 -7 20 0 6 6 3 10 -10 10 -13 0 -16 -4 -10 -10z"/>
<path d="M2095 1600 c-3 -6 1 -7 9 -4 18 7 21 14 7 14 -6 0 -13 -4 -16 -10z"/>
<path d="M5913 1595 c0 -8 4 -12 9 -9 4 3 8 9 8 15 0 5 -4 9 -8 9 -5 0 -9 -7
-9 -15z"/>
<path d="M5990 1602 c0 -4 10 -9 22 -9 18 -2 20 0 8 7 -18 12 -30 13 -30 2z"/>
<path d="M6072 1594 c10 -10 20 -16 22 -13 3 3 -5 11 -17 18 -21 13 -21 12 -5
-5z"/>
<path d="M6156 1602 c-3 -5 1 -9 9 -9 8 0 12 4 9 9 -3 4 -7 8 -9 8 -2 0 -6 -4
-9 -8z"/>
<path d="M6190 1602 c0 -5 7 -9 15 -9 8 0 12 4 9 9 -3 4 -9 8 -15 8 -5 0 -9
-4 -9 -8z"/>
<path d="M6117 1589 c7 -7 15 -10 18 -7 3 3 -2 9 -12 12 -14 6 -15 5 -6 -5z"/>
<path d="M1860 1580 c-9 -6 -10 -10 -3 -10 6 0 15 5 18 10 8 12 4 12 -15 0z"/>
<path d="M1915 1581 c-3 -5 -2 -12 3 -15 5 -3 9 1 9 9 0 17 -3 19 -12 6z"/>
</g>
</svg>
